<mxfile host="Electron" modified="2023-05-03T16:03:00.906Z" agent="Mozilla/5.0 (Windows NT 10.0; Win64; x64) AppleWebKit/537.36 (KHTML, like Gecko) draw.io/21.1.2 Chrome/106.0.5249.199 Electron/21.4.3 Safari/537.36" etag="cHu52-q02jg94CHiIolM" version="21.1.2" type="device">
  <diagram name="Page-1" id="wnSWDiqkqV2v1izVzYZM">
    <mxGraphModel dx="4780" dy="2787" grid="1" gridSize="10" guides="1" tooltips="1" connect="1" arrows="1" fold="1" page="1" pageScale="1" pageWidth="5000" pageHeight="5000" math="0" shadow="0">
      <root>
        <mxCell id="0" />
        <mxCell id="1" parent="0" />
        <mxCell id="mST9L1KYjSmr3MNv_KCc-87" value="" style="endArrow=none;html=1;rounded=0;exitX=0.5;exitY=0;exitDx=0;exitDy=0;" parent="1" source="mST9L1KYjSmr3MNv_KCc-26" edge="1">
          <mxGeometry width="50" height="50" relative="1" as="geometry">
            <mxPoint x="2490" y="3160" as="sourcePoint" />
            <mxPoint x="2530" y="3160" as="targetPoint" />
            <Array as="points">
              <mxPoint x="2705" y="3160" />
              <mxPoint x="2600" y="3160" />
            </Array>
          </mxGeometry>
        </mxCell>
        <mxCell id="mST9L1KYjSmr3MNv_KCc-1" value="Employee" style="swimlane;fontStyle=1;align=center;verticalAlign=top;childLayout=stackLayout;horizontal=1;startSize=26;horizontalStack=0;resizeParent=1;resizeParentMax=0;resizeLast=0;collapsible=1;marginBottom=0;whiteSpace=wrap;html=1;" parent="1" vertex="1">
          <mxGeometry x="3340" y="2230" width="560" height="810" as="geometry" />
        </mxCell>
        <mxCell id="mST9L1KYjSmr3MNv_KCc-2" value="- id : int&lt;br&gt;- firstName : String&lt;br&gt;- lastName : String&lt;br&gt;- hireDate : String&lt;br&gt;- Salary : float&lt;br&gt;- phoneNumber : String[]&lt;br&gt;- email : String&lt;br&gt;- gender : String&lt;br&gt;- ssn : String&lt;br&gt;- address : String&lt;br&gt;- birthDate : String&lt;br&gt;- age : int&amp;nbsp;&lt;br&gt;- mainWorkLocation : Location&lt;br&gt;- schedual : Schedual&lt;br&gt;- insurance : Insurance" style="text;strokeColor=none;fillColor=none;align=left;verticalAlign=top;spacingLeft=4;spacingRight=4;overflow=hidden;rotatable=0;points=[[0,0.5],[1,0.5]];portConstraint=eastwest;whiteSpace=wrap;html=1;" parent="mST9L1KYjSmr3MNv_KCc-1" vertex="1">
          <mxGeometry y="26" width="560" height="224" as="geometry" />
        </mxCell>
        <mxCell id="mST9L1KYjSmr3MNv_KCc-3" value="" style="line;strokeWidth=1;fillColor=none;align=left;verticalAlign=middle;spacingTop=-1;spacingLeft=3;spacingRight=3;rotatable=0;labelPosition=right;points=[];portConstraint=eastwest;strokeColor=inherit;" parent="mST9L1KYjSmr3MNv_KCc-1" vertex="1">
          <mxGeometry y="250" width="560" height="8" as="geometry" />
        </mxCell>
        <mxCell id="mST9L1KYjSmr3MNv_KCc-4" value="+ Employee(int id, String first_name, String last_name, String hireDate, float salary, String[] phoneNumber, String email, String gender, String ssn, String address, String birthDate, Location Location)&lt;br&gt;+ SendEmployeeRequest(Request request, department_ID) : int&lt;br&gt;+ SendMaintenanceRequest(Request request, department_ID) : int&lt;br&gt;+ getEmployeeInsurance();&lt;br&gt;+ CalculateAge() : int&lt;br&gt;+ setID(int id) : void&lt;br&gt;+ setFirstName(String firstName) : void&lt;br&gt;+ setLastName(String&amp;nbsp;lastName) : void&lt;br&gt;+ setHireDate(String hireDate) : void&lt;br&gt;+ setSalary(float salary) : void&lt;br&gt;+ addPhoneNumber(String phoneNumber) : void&lt;br&gt;+ removePhoneNumber(int index) : void&lt;br&gt;+ setEmail(String email) : void&lt;br&gt;+ setGender(String Gender) : void&lt;br&gt;+ setSSN(String ssn) : void&lt;br&gt;+ setAddress(String address) : void&lt;br&gt;+ setBirthDate(String birthDate) : void&lt;br&gt;+ getAge() : int&lt;br&gt;+ getID() : int&amp;nbsp;&lt;br style=&quot;border-color: var(--border-color);&quot;&gt;+ getFirstName() : String&amp;nbsp;&lt;br style=&quot;border-color: var(--border-color);&quot;&gt;+ getLastName() : String&lt;br style=&quot;border-color: var(--border-color);&quot;&gt;+ getHireDate() : String&amp;nbsp;&lt;br style=&quot;border-color: var(--border-color);&quot;&gt;+ getSalary() : float&amp;nbsp;&lt;br style=&quot;border-color: var(--border-color);&quot;&gt;+ getPhoneNumber() : String[]&amp;nbsp;&lt;br style=&quot;border-color: var(--border-color);&quot;&gt;+ getEmail() : String&amp;nbsp;&lt;br style=&quot;border-color: var(--border-color);&quot;&gt;+ getGender() : String&amp;nbsp;&lt;br style=&quot;border-color: var(--border-color);&quot;&gt;+ getSSN() : String&amp;nbsp;&lt;br style=&quot;border-color: var(--border-color);&quot;&gt;+ getAddress() : String&amp;nbsp;&lt;br style=&quot;border-color: var(--border-color);&quot;&gt;+ getBirthDate() : String&lt;br&gt;+ displayEmployeeData() : void&lt;br&gt;+ setMainLocation(Location location) : void&lt;br style=&quot;border-color: var(--border-color);&quot;&gt;+ getMainLocation() : Location&lt;br&gt;+ getSchedual() : Schedual&lt;br&gt;+ setSchedual(Schedual schedual) : void&lt;br&gt;+ getData(String datatype) : Object[]" style="text;strokeColor=none;fillColor=none;align=left;verticalAlign=top;spacingLeft=4;spacingRight=4;overflow=hidden;rotatable=0;points=[[0,0.5],[1,0.5]];portConstraint=eastwest;whiteSpace=wrap;html=1;" parent="mST9L1KYjSmr3MNv_KCc-1" vertex="1">
          <mxGeometry y="258" width="560" height="552" as="geometry" />
        </mxCell>
        <mxCell id="mST9L1KYjSmr3MNv_KCc-6" value="Worker" style="swimlane;fontStyle=1;align=center;verticalAlign=top;childLayout=stackLayout;horizontal=1;startSize=26;horizontalStack=0;resizeParent=1;resizeParentMax=0;resizeLast=0;collapsible=1;marginBottom=0;whiteSpace=wrap;html=1;" parent="1" vertex="1">
          <mxGeometry x="3060" y="3130" width="160" height="34" as="geometry" />
        </mxCell>
        <mxCell id="mST9L1KYjSmr3MNv_KCc-8" value="" style="line;strokeWidth=1;fillColor=none;align=left;verticalAlign=middle;spacingTop=-1;spacingLeft=3;spacingRight=3;rotatable=0;labelPosition=right;points=[];portConstraint=eastwest;strokeColor=inherit;" parent="mST9L1KYjSmr3MNv_KCc-6" vertex="1">
          <mxGeometry y="26" width="160" height="8" as="geometry" />
        </mxCell>
        <mxCell id="mST9L1KYjSmr3MNv_KCc-10" value="Engineer" style="swimlane;fontStyle=1;align=center;verticalAlign=top;childLayout=stackLayout;horizontal=1;startSize=26;horizontalStack=0;resizeParent=1;resizeParentMax=0;resizeLast=0;collapsible=1;marginBottom=0;whiteSpace=wrap;html=1;" parent="1" vertex="1">
          <mxGeometry x="3740" y="3130" width="280" height="110" as="geometry" />
        </mxCell>
        <mxCell id="mST9L1KYjSmr3MNv_KCc-11" value="- Specialization : String" style="text;strokeColor=none;fillColor=none;align=left;verticalAlign=top;spacingLeft=4;spacingRight=4;overflow=hidden;rotatable=0;points=[[0,0.5],[1,0.5]];portConstraint=eastwest;whiteSpace=wrap;html=1;" parent="mST9L1KYjSmr3MNv_KCc-10" vertex="1">
          <mxGeometry y="26" width="280" height="24" as="geometry" />
        </mxCell>
        <mxCell id="mST9L1KYjSmr3MNv_KCc-12" value="" style="line;strokeWidth=1;fillColor=none;align=left;verticalAlign=middle;spacingTop=-1;spacingLeft=3;spacingRight=3;rotatable=0;labelPosition=right;points=[];portConstraint=eastwest;strokeColor=inherit;" parent="mST9L1KYjSmr3MNv_KCc-10" vertex="1">
          <mxGeometry y="50" width="280" height="8" as="geometry" />
        </mxCell>
        <mxCell id="mST9L1KYjSmr3MNv_KCc-13" value="+ SendToolRequest(Report report) : void&lt;br&gt;+ DisplayToolRequestValidation() : void&lt;br&gt;+ AssignTaskToWorker(int employeeID, Task task)" style="text;strokeColor=none;fillColor=none;align=left;verticalAlign=top;spacingLeft=4;spacingRight=4;overflow=hidden;rotatable=0;points=[[0,0.5],[1,0.5]];portConstraint=eastwest;whiteSpace=wrap;html=1;" parent="mST9L1KYjSmr3MNv_KCc-10" vertex="1">
          <mxGeometry y="58" width="280" height="52" as="geometry" />
        </mxCell>
        <mxCell id="mST9L1KYjSmr3MNv_KCc-14" value="Lab Technician" style="swimlane;fontStyle=1;align=center;verticalAlign=top;childLayout=stackLayout;horizontal=1;startSize=26;horizontalStack=0;resizeParent=1;resizeParentMax=0;resizeLast=0;collapsible=1;marginBottom=0;whiteSpace=wrap;html=1;" parent="1" vertex="1">
          <mxGeometry x="4260" y="3130" width="230" height="150" as="geometry" />
        </mxCell>
        <mxCell id="mST9L1KYjSmr3MNv_KCc-15" value="- specialization : String" style="text;strokeColor=none;fillColor=none;align=left;verticalAlign=top;spacingLeft=4;spacingRight=4;overflow=hidden;rotatable=0;points=[[0,0.5],[1,0.5]];portConstraint=eastwest;whiteSpace=wrap;html=1;" parent="mST9L1KYjSmr3MNv_KCc-14" vertex="1">
          <mxGeometry y="26" width="230" height="24" as="geometry" />
        </mxCell>
        <mxCell id="mST9L1KYjSmr3MNv_KCc-16" value="" style="line;strokeWidth=1;fillColor=none;align=left;verticalAlign=middle;spacingTop=-1;spacingLeft=3;spacingRight=3;rotatable=0;labelPosition=right;points=[];portConstraint=eastwest;strokeColor=inherit;" parent="mST9L1KYjSmr3MNv_KCc-14" vertex="1">
          <mxGeometry y="50" width="230" height="8" as="geometry" />
        </mxCell>
        <mxCell id="mST9L1KYjSmr3MNv_KCc-17" value="+ SendToolRequest(Report report) : void&lt;br style=&quot;border-color: var(--border-color);&quot;&gt;+ DisplayToolRequestValidation() : void&lt;br&gt;+ SendLabReport(Report report) : void&lt;br&gt;+ DisplayLabReport() : void&lt;br&gt;+ getLabReport(int reportID) : Report" style="text;strokeColor=none;fillColor=none;align=left;verticalAlign=top;spacingLeft=4;spacingRight=4;overflow=hidden;rotatable=0;points=[[0,0.5],[1,0.5]];portConstraint=eastwest;whiteSpace=wrap;html=1;" parent="mST9L1KYjSmr3MNv_KCc-14" vertex="1">
          <mxGeometry y="58" width="230" height="92" as="geometry" />
        </mxCell>
        <mxCell id="mST9L1KYjSmr3MNv_KCc-18" value="Report" style="swimlane;fontStyle=1;align=center;verticalAlign=top;childLayout=stackLayout;horizontal=1;startSize=26;horizontalStack=0;resizeParent=1;resizeParentMax=0;resizeLast=0;collapsible=1;marginBottom=0;whiteSpace=wrap;html=1;" parent="1" vertex="1">
          <mxGeometry x="4460" y="2420" width="350" height="390" as="geometry" />
        </mxCell>
        <mxCell id="mST9L1KYjSmr3MNv_KCc-19" value="- ID : int&amp;nbsp;&lt;br&gt;- description : String&lt;br&gt;- URL : String[]&lt;br&gt;- data : PDF[]&lt;br&gt;- employeeID : int&lt;br&gt;- departmentID : int" style="text;strokeColor=none;fillColor=none;align=left;verticalAlign=top;spacingLeft=4;spacingRight=4;overflow=hidden;rotatable=0;points=[[0,0.5],[1,0.5]];portConstraint=eastwest;whiteSpace=wrap;html=1;" parent="mST9L1KYjSmr3MNv_KCc-18" vertex="1">
          <mxGeometry y="26" width="350" height="104" as="geometry" />
        </mxCell>
        <mxCell id="mST9L1KYjSmr3MNv_KCc-20" value="" style="line;strokeWidth=1;fillColor=none;align=left;verticalAlign=middle;spacingTop=-1;spacingLeft=3;spacingRight=3;rotatable=0;labelPosition=right;points=[];portConstraint=eastwest;strokeColor=inherit;" parent="mST9L1KYjSmr3MNv_KCc-18" vertex="1">
          <mxGeometry y="130" width="350" height="8" as="geometry" />
        </mxCell>
        <mxCell id="mST9L1KYjSmr3MNv_KCc-21" value="+ Report(int ID, String Description, int employeeID, int departmentID, String URL, PDF[] pdf)&lt;br&gt;+&amp;nbsp;getID&lt;span style=&quot;background-color: initial;&quot;&gt;() : int&lt;br&gt;&lt;/span&gt;+ setID(int ID) : void&lt;br&gt;+ getDescription() : String&amp;nbsp;&lt;br&gt;+ setDescription(String&amp;nbsp;description) : void&lt;br&gt;+ getData() : PDF[]&lt;br&gt;+ addPDF(PDF data) : void&lt;br&gt;+ removePDF(int PDF_Index) : void&lt;br&gt;+ getURL() : String[]&lt;br&gt;&lt;span style=&quot;background-color: rgb(255, 255, 255);&quot;&gt;+ addURL(String url) : void&lt;/span&gt;&lt;br style=&quot;border-color: var(--border-color);&quot;&gt;&lt;span style=&quot;background-color: rgb(255, 255, 255);&quot;&gt;+ removeURL(int URL_Index) : void&lt;br&gt;&lt;/span&gt;+ getEmployeeID() : int&lt;br&gt;+ setEmployeeID(int employeeID) : void&lt;br&gt;&lt;span style=&quot;background-color: rgb(255, 255, 255);&quot;&gt;+ getDepartmentID() : int&lt;/span&gt;&lt;br style=&quot;border-color: var(--border-color);&quot;&gt;+ set&lt;span style=&quot;background-color: rgb(255, 255, 255);&quot;&gt;Department&lt;/span&gt;&lt;span style=&quot;background-color: rgb(255, 255, 255);&quot;&gt;ID(int employeeID) : void&lt;/span&gt;&lt;span style=&quot;background-color: rgb(255, 255, 255);&quot;&gt;&lt;br&gt;&lt;/span&gt;" style="text;strokeColor=none;fillColor=none;align=left;verticalAlign=top;spacingLeft=4;spacingRight=4;overflow=hidden;rotatable=0;points=[[0,0.5],[1,0.5]];portConstraint=eastwest;whiteSpace=wrap;html=1;" parent="mST9L1KYjSmr3MNv_KCc-18" vertex="1">
          <mxGeometry y="138" width="350" height="252" as="geometry" />
        </mxCell>
        <mxCell id="mST9L1KYjSmr3MNv_KCc-22" value="Lab" style="swimlane;fontStyle=1;align=center;verticalAlign=top;childLayout=stackLayout;horizontal=1;startSize=26;horizontalStack=0;resizeParent=1;resizeParentMax=0;resizeLast=0;collapsible=1;marginBottom=0;whiteSpace=wrap;html=1;" parent="1" vertex="1">
          <mxGeometry x="2210" y="3200" width="310" height="160" as="geometry" />
        </mxCell>
        <mxCell id="mST9L1KYjSmr3MNv_KCc-23" value="- labTechnicians : LabTechnician[]&lt;br&gt;- head : LabTechnician" style="text;strokeColor=none;fillColor=none;align=left;verticalAlign=top;spacingLeft=4;spacingRight=4;overflow=hidden;rotatable=0;points=[[0,0.5],[1,0.5]];portConstraint=eastwest;whiteSpace=wrap;html=1;" parent="mST9L1KYjSmr3MNv_KCc-22" vertex="1">
          <mxGeometry y="26" width="310" height="44" as="geometry" />
        </mxCell>
        <mxCell id="mST9L1KYjSmr3MNv_KCc-24" value="" style="line;strokeWidth=1;fillColor=none;align=left;verticalAlign=middle;spacingTop=-1;spacingLeft=3;spacingRight=3;rotatable=0;labelPosition=right;points=[];portConstraint=eastwest;strokeColor=inherit;" parent="mST9L1KYjSmr3MNv_KCc-22" vertex="1">
          <mxGeometry y="70" width="310" height="8" as="geometry" />
        </mxCell>
        <mxCell id="mST9L1KYjSmr3MNv_KCc-25" value="+ getLabTechnicians() : LabTechnician[]&lt;br style=&quot;border-color: var(--border-color);&quot;&gt;+ addLabTechnician(int labTechnicianID) : void&lt;br&gt;+ removeLabTechnician(int labTechnicianID) : void&lt;br&gt;+ getLabHead() : LabTechnician&lt;br&gt;+ setLabHead(labTechnicianID)&amp;nbsp;" style="text;strokeColor=none;fillColor=none;align=left;verticalAlign=top;spacingLeft=4;spacingRight=4;overflow=hidden;rotatable=0;points=[[0,0.5],[1,0.5]];portConstraint=eastwest;whiteSpace=wrap;html=1;" parent="mST9L1KYjSmr3MNv_KCc-22" vertex="1">
          <mxGeometry y="78" width="310" height="82" as="geometry" />
        </mxCell>
        <mxCell id="mST9L1KYjSmr3MNv_KCc-26" value="Work Site" style="swimlane;fontStyle=1;align=center;verticalAlign=top;childLayout=stackLayout;horizontal=1;startSize=26;horizontalStack=0;resizeParent=1;resizeParentMax=0;resizeLast=0;collapsible=1;marginBottom=0;whiteSpace=wrap;html=1;" parent="1" vertex="1">
          <mxGeometry x="2550" y="3200" width="310" height="220" as="geometry" />
        </mxCell>
        <mxCell id="mST9L1KYjSmr3MNv_KCc-27" value="- head : Engineer&lt;br&gt;- worker : Worker[]&lt;br&gt;- engineer : Engineer[]" style="text;strokeColor=none;fillColor=none;align=left;verticalAlign=top;spacingLeft=4;spacingRight=4;overflow=hidden;rotatable=0;points=[[0,0.5],[1,0.5]];portConstraint=eastwest;whiteSpace=wrap;html=1;" parent="mST9L1KYjSmr3MNv_KCc-26" vertex="1">
          <mxGeometry y="26" width="310" height="54" as="geometry" />
        </mxCell>
        <mxCell id="mST9L1KYjSmr3MNv_KCc-28" value="" style="line;strokeWidth=1;fillColor=none;align=left;verticalAlign=middle;spacingTop=-1;spacingLeft=3;spacingRight=3;rotatable=0;labelPosition=right;points=[];portConstraint=eastwest;strokeColor=inherit;" parent="mST9L1KYjSmr3MNv_KCc-26" vertex="1">
          <mxGeometry y="80" width="310" height="8" as="geometry" />
        </mxCell>
        <mxCell id="mST9L1KYjSmr3MNv_KCc-29" value="+ getEngineers() : Engineer[]&lt;br style=&quot;border-color: var(--border-color);&quot;&gt;+ addEngineer(int engineerID) : void&lt;br style=&quot;border-color: var(--border-color);&quot;&gt;+ removeEngineer(int engineerID) : void&lt;br style=&quot;border-color: var(--border-color);&quot;&gt;+ getSiteHead() : Engineer&lt;br style=&quot;border-color: var(--border-color);&quot;&gt;+ setSiteHead(engineerID)&amp;nbsp;&lt;br&gt;+ getWorkers() : Worker[]&lt;br style=&quot;border-color: var(--border-color);&quot;&gt;+ addWorker(int WorkerID) : void&lt;br style=&quot;border-color: var(--border-color);&quot;&gt;+ removeWorker(int WorkerID) : void" style="text;strokeColor=none;fillColor=none;align=left;verticalAlign=top;spacingLeft=4;spacingRight=4;overflow=hidden;rotatable=0;points=[[0,0.5],[1,0.5]];portConstraint=eastwest;whiteSpace=wrap;html=1;" parent="mST9L1KYjSmr3MNv_KCc-26" vertex="1">
          <mxGeometry y="88" width="310" height="132" as="geometry" />
        </mxCell>
        <mxCell id="mST9L1KYjSmr3MNv_KCc-30" value="Department" style="swimlane;fontStyle=1;align=center;verticalAlign=top;childLayout=stackLayout;horizontal=1;startSize=26;horizontalStack=0;resizeParent=1;resizeParentMax=0;resizeLast=0;collapsible=1;marginBottom=0;whiteSpace=wrap;html=1;" parent="1" vertex="1">
          <mxGeometry x="2800" y="2500" width="470" height="350" as="geometry" />
        </mxCell>
        <mxCell id="mST9L1KYjSmr3MNv_KCc-31" value="- id : int&lt;br&gt;- locations : Location[]&lt;br&gt;- employees : Employee[]" style="text;strokeColor=none;fillColor=none;align=left;verticalAlign=top;spacingLeft=4;spacingRight=4;overflow=hidden;rotatable=0;points=[[0,0.5],[1,0.5]];portConstraint=eastwest;whiteSpace=wrap;html=1;" parent="mST9L1KYjSmr3MNv_KCc-30" vertex="1">
          <mxGeometry y="26" width="470" height="54" as="geometry" />
        </mxCell>
        <mxCell id="mST9L1KYjSmr3MNv_KCc-32" value="" style="line;strokeWidth=1;fillColor=none;align=left;verticalAlign=middle;spacingTop=-1;spacingLeft=3;spacingRight=3;rotatable=0;labelPosition=right;points=[];portConstraint=eastwest;strokeColor=inherit;" parent="mST9L1KYjSmr3MNv_KCc-30" vertex="1">
          <mxGeometry y="80" width="470" height="8" as="geometry" />
        </mxCell>
        <mxCell id="mST9L1KYjSmr3MNv_KCc-33" value="+ sendHiaringRequestToHR(Request request, int departmentID) : void&lt;br&gt;+ DisplayHiaringRequestValidationFromHR() : void&lt;br&gt;+ addEmployee(int employeeID) : void&lt;br&gt;+ removeEmployee(int employeeID) : void&lt;br&gt;+ DisplayEmployeeRequest() : void&lt;br&gt;+ PromoteEmployee(int employeeID) : void&lt;br&gt;+ SendEmployeeRequestValidation(int employeeID, int requestID) : void&lt;br&gt;+ SendPuchaseRequestToFinancailDepartment(int employeeID, int requestID) : void&lt;br&gt;+ DisplayHiringRequestValidation(int requestID) : void&lt;br&gt;+ getDepartmentID() : int&lt;br&gt;+ getEmployees() : Employee[]&lt;br&gt;+ getLocations() : Location[]&lt;br&gt;+ setDepartmentID(int departmentID) : void&lt;br&gt;+ addLocation(int LocationID) : void&lt;br&gt;+ removeLocation(int LocationID) : void&lt;br&gt;+ AddTaskToEmployee(Task task, int employeeID) : void&lt;br&gt;+ getData(String datatype) : Object[]" style="text;strokeColor=none;fillColor=none;align=left;verticalAlign=top;spacingLeft=4;spacingRight=4;overflow=hidden;rotatable=0;points=[[0,0.5],[1,0.5]];portConstraint=eastwest;whiteSpace=wrap;html=1;" parent="mST9L1KYjSmr3MNv_KCc-30" vertex="1">
          <mxGeometry y="88" width="470" height="262" as="geometry" />
        </mxCell>
        <mxCell id="mST9L1KYjSmr3MNv_KCc-34" value="Location" style="swimlane;fontStyle=1;align=center;verticalAlign=top;childLayout=stackLayout;horizontal=1;startSize=26;horizontalStack=0;resizeParent=1;resizeParentMax=0;resizeLast=0;collapsible=1;marginBottom=0;whiteSpace=wrap;html=1;" parent="1" vertex="1">
          <mxGeometry x="2395" y="2920" width="270" height="210" as="geometry" />
        </mxCell>
        <mxCell id="mST9L1KYjSmr3MNv_KCc-35" value="- address : String&lt;br&gt;- security : Security[]&lt;br&gt;- id : int" style="text;strokeColor=none;fillColor=none;align=left;verticalAlign=top;spacingLeft=4;spacingRight=4;overflow=hidden;rotatable=0;points=[[0,0.5],[1,0.5]];portConstraint=eastwest;whiteSpace=wrap;html=1;" parent="mST9L1KYjSmr3MNv_KCc-34" vertex="1">
          <mxGeometry y="26" width="270" height="54" as="geometry" />
        </mxCell>
        <mxCell id="mST9L1KYjSmr3MNv_KCc-36" value="" style="line;strokeWidth=1;fillColor=none;align=left;verticalAlign=middle;spacingTop=-1;spacingLeft=3;spacingRight=3;rotatable=0;labelPosition=right;points=[];portConstraint=eastwest;strokeColor=inherit;" parent="mST9L1KYjSmr3MNv_KCc-34" vertex="1">
          <mxGeometry y="80" width="270" height="8" as="geometry" />
        </mxCell>
        <mxCell id="mST9L1KYjSmr3MNv_KCc-37" value="+ setAddress(string address) : void&lt;br&gt;+ getAddress() : String&lt;br&gt;+ getSecurity() : Security[]&lt;br&gt;+ addSecurity(int securityID) : void&lt;br&gt;+ removeSecurity(int securityID) : void&lt;br&gt;+ setLocationID(int id) : void&lt;br&gt;+ getLocationID() : int" style="text;strokeColor=none;fillColor=none;align=left;verticalAlign=top;spacingLeft=4;spacingRight=4;overflow=hidden;rotatable=0;points=[[0,0.5],[1,0.5]];portConstraint=eastwest;whiteSpace=wrap;html=1;" parent="mST9L1KYjSmr3MNv_KCc-34" vertex="1">
          <mxGeometry y="88" width="270" height="122" as="geometry" />
        </mxCell>
        <mxCell id="mST9L1KYjSmr3MNv_KCc-38" value="Lawyer" style="swimlane;fontStyle=1;align=center;verticalAlign=top;childLayout=stackLayout;horizontal=1;startSize=26;horizontalStack=0;resizeParent=1;resizeParentMax=0;resizeLast=0;collapsible=1;marginBottom=0;whiteSpace=wrap;html=1;" parent="1" vertex="1">
          <mxGeometry x="3260" y="3130" width="240" height="60" as="geometry" />
        </mxCell>
        <mxCell id="mST9L1KYjSmr3MNv_KCc-40" value="" style="line;strokeWidth=1;fillColor=none;align=left;verticalAlign=middle;spacingTop=-1;spacingLeft=3;spacingRight=3;rotatable=0;labelPosition=right;points=[];portConstraint=eastwest;strokeColor=inherit;" parent="mST9L1KYjSmr3MNv_KCc-38" vertex="1">
          <mxGeometry y="26" width="240" height="8" as="geometry" />
        </mxCell>
        <mxCell id="mST9L1KYjSmr3MNv_KCc-41" value="DisplayLegalPapers(int reportID) : void" style="text;strokeColor=none;fillColor=none;align=left;verticalAlign=top;spacingLeft=4;spacingRight=4;overflow=hidden;rotatable=0;points=[[0,0.5],[1,0.5]];portConstraint=eastwest;whiteSpace=wrap;html=1;" parent="mST9L1KYjSmr3MNv_KCc-38" vertex="1">
          <mxGeometry y="34" width="240" height="26" as="geometry" />
        </mxCell>
        <mxCell id="mST9L1KYjSmr3MNv_KCc-42" value="HR Employee" style="swimlane;fontStyle=1;align=center;verticalAlign=top;childLayout=stackLayout;horizontal=1;startSize=26;horizontalStack=0;resizeParent=1;resizeParentMax=0;resizeLast=0;collapsible=1;marginBottom=0;whiteSpace=wrap;html=1;" parent="1" vertex="1">
          <mxGeometry x="3540" y="3130" width="160" height="34" as="geometry" />
        </mxCell>
        <mxCell id="mST9L1KYjSmr3MNv_KCc-44" value="" style="line;strokeWidth=1;fillColor=none;align=left;verticalAlign=middle;spacingTop=-1;spacingLeft=3;spacingRight=3;rotatable=0;labelPosition=right;points=[];portConstraint=eastwest;strokeColor=inherit;" parent="mST9L1KYjSmr3MNv_KCc-42" vertex="1">
          <mxGeometry y="26" width="160" height="8" as="geometry" />
        </mxCell>
        <mxCell id="mST9L1KYjSmr3MNv_KCc-46" value="Accountant" style="swimlane;fontStyle=1;align=center;verticalAlign=top;childLayout=stackLayout;horizontal=1;startSize=26;horizontalStack=0;resizeParent=1;resizeParentMax=0;resizeLast=0;collapsible=1;marginBottom=0;whiteSpace=wrap;html=1;" parent="1" vertex="1">
          <mxGeometry x="2860" y="3130" width="160" height="34" as="geometry" />
        </mxCell>
        <mxCell id="mST9L1KYjSmr3MNv_KCc-48" value="" style="line;strokeWidth=1;fillColor=none;align=left;verticalAlign=middle;spacingTop=-1;spacingLeft=3;spacingRight=3;rotatable=0;labelPosition=right;points=[];portConstraint=eastwest;strokeColor=inherit;" parent="mST9L1KYjSmr3MNv_KCc-46" vertex="1">
          <mxGeometry y="26" width="160" height="8" as="geometry" />
        </mxCell>
        <mxCell id="mST9L1KYjSmr3MNv_KCc-50" value="Security" style="swimlane;fontStyle=1;align=center;verticalAlign=top;childLayout=stackLayout;horizontal=1;startSize=26;horizontalStack=0;resizeParent=1;resizeParentMax=0;resizeLast=0;collapsible=1;marginBottom=0;whiteSpace=wrap;html=1;" parent="1" vertex="1">
          <mxGeometry x="4060" y="3130" width="160" height="60" as="geometry" />
        </mxCell>
        <mxCell id="mST9L1KYjSmr3MNv_KCc-52" value="" style="line;strokeWidth=1;fillColor=none;align=left;verticalAlign=middle;spacingTop=-1;spacingLeft=3;spacingRight=3;rotatable=0;labelPosition=right;points=[];portConstraint=eastwest;strokeColor=inherit;" parent="mST9L1KYjSmr3MNv_KCc-50" vertex="1">
          <mxGeometry y="26" width="160" height="8" as="geometry" />
        </mxCell>
        <mxCell id="mST9L1KYjSmr3MNv_KCc-53" value="+ AccessCamera() : void" style="text;strokeColor=none;fillColor=none;align=left;verticalAlign=top;spacingLeft=4;spacingRight=4;overflow=hidden;rotatable=0;points=[[0,0.5],[1,0.5]];portConstraint=eastwest;whiteSpace=wrap;html=1;" parent="mST9L1KYjSmr3MNv_KCc-50" vertex="1">
          <mxGeometry y="34" width="160" height="26" as="geometry" />
        </mxCell>
        <mxCell id="mST9L1KYjSmr3MNv_KCc-54" value="Company Manager" style="swimlane;fontStyle=1;align=center;verticalAlign=top;childLayout=stackLayout;horizontal=1;startSize=26;horizontalStack=0;resizeParent=1;resizeParentMax=0;resizeLast=0;collapsible=1;marginBottom=0;whiteSpace=wrap;html=1;" parent="1" vertex="1">
          <mxGeometry x="1615" y="3420" width="390" height="640" as="geometry" />
        </mxCell>
        <mxCell id="mST9L1KYjSmr3MNv_KCc-55" value="- firstName : String&lt;br style=&quot;border-color: var(--border-color);&quot;&gt;- lastName : String&lt;br style=&quot;border-color: var(--border-color);&quot;&gt;- hireDate : String&lt;br style=&quot;border-color: var(--border-color);&quot;&gt;- Salary : float&lt;br style=&quot;border-color: var(--border-color);&quot;&gt;- phoneNumber : String[]&lt;br style=&quot;border-color: var(--border-color);&quot;&gt;- email : String&lt;br style=&quot;border-color: var(--border-color);&quot;&gt;- gender : String&lt;br style=&quot;border-color: var(--border-color);&quot;&gt;- ssn : String&lt;br style=&quot;border-color: var(--border-color);&quot;&gt;- address : String&lt;br style=&quot;border-color: var(--border-color);&quot;&gt;- birthDate : String&lt;br style=&quot;border-color: var(--border-color);&quot;&gt;- age : int&amp;nbsp;" style="text;strokeColor=none;fillColor=none;align=left;verticalAlign=top;spacingLeft=4;spacingRight=4;overflow=hidden;rotatable=0;points=[[0,0.5],[1,0.5]];portConstraint=eastwest;whiteSpace=wrap;html=1;" parent="mST9L1KYjSmr3MNv_KCc-54" vertex="1">
          <mxGeometry y="26" width="390" height="164" as="geometry" />
        </mxCell>
        <mxCell id="mST9L1KYjSmr3MNv_KCc-56" value="" style="line;strokeWidth=1;fillColor=none;align=left;verticalAlign=middle;spacingTop=-1;spacingLeft=3;spacingRight=3;rotatable=0;labelPosition=right;points=[];portConstraint=eastwest;strokeColor=inherit;" parent="mST9L1KYjSmr3MNv_KCc-54" vertex="1">
          <mxGeometry y="190" width="390" height="8" as="geometry" />
        </mxCell>
        <mxCell id="mST9L1KYjSmr3MNv_KCc-57" value="+ CalculateAge() : int&lt;br style=&quot;border-color: var(--border-color);&quot;&gt;+ setFirstName(String firstName) : void&lt;br style=&quot;border-color: var(--border-color);&quot;&gt;+ setLastName(String&amp;nbsp;lastName) : void&lt;br style=&quot;border-color: var(--border-color);&quot;&gt;+ setHireDate(String hireDate) : void&lt;br style=&quot;border-color: var(--border-color);&quot;&gt;+ setSalary(float salary) : void&lt;br style=&quot;border-color: var(--border-color);&quot;&gt;+ addPhoneNumber(String phoneNumber) : void&lt;br style=&quot;border-color: var(--border-color);&quot;&gt;+ removePhoneNumber(int index) : void&lt;br style=&quot;border-color: var(--border-color);&quot;&gt;+ setEmail(String email) : void&lt;br style=&quot;border-color: var(--border-color);&quot;&gt;+ setGender(String Gender) : void&lt;br style=&quot;border-color: var(--border-color);&quot;&gt;+ setSSN(String ssn) : void&lt;br style=&quot;border-color: var(--border-color);&quot;&gt;+ setAddress(String address) : void&lt;br style=&quot;border-color: var(--border-color);&quot;&gt;+ setBirthDate(String birthDate) : void&lt;br style=&quot;border-color: var(--border-color);&quot;&gt;+ getAge() : int&lt;br style=&quot;border-color: var(--border-color);&quot;&gt;+ getFirstName() : String&amp;nbsp;&lt;br style=&quot;border-color: var(--border-color);&quot;&gt;+ getLastName() : String&lt;br style=&quot;border-color: var(--border-color);&quot;&gt;+ getHireDate() : String&amp;nbsp;&lt;br style=&quot;border-color: var(--border-color);&quot;&gt;+ getSalary() : float&amp;nbsp;&lt;br style=&quot;border-color: var(--border-color);&quot;&gt;+ getPhoneNumber() : String[]&amp;nbsp;&lt;br style=&quot;border-color: var(--border-color);&quot;&gt;+ getEmail() : String&amp;nbsp;&lt;br style=&quot;border-color: var(--border-color);&quot;&gt;+ getGender() : String&amp;nbsp;&lt;br style=&quot;border-color: var(--border-color);&quot;&gt;+ getSSN() : String&amp;nbsp;&lt;br style=&quot;border-color: var(--border-color);&quot;&gt;+ getAddress() : String&amp;nbsp;&lt;br style=&quot;border-color: var(--border-color);&quot;&gt;+ getBirthDate() : String&lt;br&gt;+ DisplayHiringRequest() : void&lt;br&gt;+ ValidateHiringRequest(int requestID) : void&lt;br&gt;+ DisplayPurchaseRequest() : void&lt;br&gt;+ ValidatePurchaseRequest(int requestID) : void&lt;br&gt;+ DisplayToolPurchaseRequest() : void&lt;br&gt;+ ValidateToolPurchaseRequest(int requestID) : void" style="text;strokeColor=none;fillColor=none;align=left;verticalAlign=top;spacingLeft=4;spacingRight=4;overflow=hidden;rotatable=0;points=[[0,0.5],[1,0.5]];portConstraint=eastwest;whiteSpace=wrap;html=1;" parent="mST9L1KYjSmr3MNv_KCc-54" vertex="1">
          <mxGeometry y="198" width="390" height="442" as="geometry" />
        </mxCell>
        <mxCell id="mST9L1KYjSmr3MNv_KCc-58" value="External Company" style="swimlane;fontStyle=1;align=center;verticalAlign=top;childLayout=stackLayout;horizontal=1;startSize=26;horizontalStack=0;resizeParent=1;resizeParentMax=0;resizeLast=0;collapsible=1;marginBottom=0;whiteSpace=wrap;html=1;" parent="1" vertex="1">
          <mxGeometry x="710" y="3210" width="380" height="142" as="geometry" />
        </mxCell>
        <mxCell id="mST9L1KYjSmr3MNv_KCc-59" value="- company_name : String&lt;br&gt;- phone_number : String[]&lt;br&gt;- location : String" style="text;strokeColor=none;fillColor=none;align=left;verticalAlign=top;spacingLeft=4;spacingRight=4;overflow=hidden;rotatable=0;points=[[0,0.5],[1,0.5]];portConstraint=eastwest;whiteSpace=wrap;html=1;" parent="mST9L1KYjSmr3MNv_KCc-58" vertex="1">
          <mxGeometry y="26" width="380" height="54" as="geometry" />
        </mxCell>
        <mxCell id="mST9L1KYjSmr3MNv_KCc-60" value="" style="line;strokeWidth=1;fillColor=none;align=left;verticalAlign=middle;spacingTop=-1;spacingLeft=3;spacingRight=3;rotatable=0;labelPosition=right;points=[];portConstraint=eastwest;strokeColor=inherit;" parent="mST9L1KYjSmr3MNv_KCc-58" vertex="1">
          <mxGeometry y="80" width="380" height="8" as="geometry" />
        </mxCell>
        <mxCell id="mST9L1KYjSmr3MNv_KCc-154" value="+ displayDepartmentRequest() : void&lt;br&gt;+ validateDepartmentRequest(int departmentID, int requestID) : void" style="text;strokeColor=none;fillColor=none;align=left;verticalAlign=top;spacingLeft=4;spacingRight=4;overflow=hidden;rotatable=0;points=[[0,0.5],[1,0.5]];portConstraint=eastwest;whiteSpace=wrap;html=1;" parent="mST9L1KYjSmr3MNv_KCc-58" vertex="1">
          <mxGeometry y="88" width="380" height="54" as="geometry" />
        </mxCell>
        <mxCell id="mST9L1KYjSmr3MNv_KCc-62" value="Insurance Company" style="swimlane;fontStyle=1;align=center;verticalAlign=top;childLayout=stackLayout;horizontal=1;startSize=26;horizontalStack=0;resizeParent=1;resizeParentMax=0;resizeLast=0;collapsible=1;marginBottom=0;whiteSpace=wrap;html=1;" parent="1" vertex="1">
          <mxGeometry x="640" y="3541" width="160" height="34" as="geometry" />
        </mxCell>
        <mxCell id="mST9L1KYjSmr3MNv_KCc-64" value="" style="line;strokeWidth=1;fillColor=none;align=left;verticalAlign=middle;spacingTop=-1;spacingLeft=3;spacingRight=3;rotatable=0;labelPosition=right;points=[];portConstraint=eastwest;strokeColor=inherit;" parent="mST9L1KYjSmr3MNv_KCc-62" vertex="1">
          <mxGeometry y="26" width="160" height="8" as="geometry" />
        </mxCell>
        <mxCell id="mST9L1KYjSmr3MNv_KCc-66" value="Specialized Tool Company" style="swimlane;fontStyle=1;align=center;verticalAlign=top;childLayout=stackLayout;horizontal=1;startSize=26;horizontalStack=0;resizeParent=1;resizeParentMax=0;resizeLast=0;collapsible=1;marginBottom=0;whiteSpace=wrap;html=1;" parent="1" vertex="1">
          <mxGeometry x="820" y="3551" width="160" height="34" as="geometry" />
        </mxCell>
        <mxCell id="mST9L1KYjSmr3MNv_KCc-68" value="" style="line;strokeWidth=1;fillColor=none;align=left;verticalAlign=middle;spacingTop=-1;spacingLeft=3;spacingRight=3;rotatable=0;labelPosition=right;points=[];portConstraint=eastwest;strokeColor=inherit;" parent="mST9L1KYjSmr3MNv_KCc-66" vertex="1">
          <mxGeometry y="26" width="160" height="8" as="geometry" />
        </mxCell>
        <mxCell id="mST9L1KYjSmr3MNv_KCc-70" value="Transportation Company" style="swimlane;fontStyle=1;align=center;verticalAlign=top;childLayout=stackLayout;horizontal=1;startSize=26;horizontalStack=0;resizeParent=1;resizeParentMax=0;resizeLast=0;collapsible=1;marginBottom=0;whiteSpace=wrap;html=1;" parent="1" vertex="1">
          <mxGeometry x="1000" y="3541" width="160" height="34" as="geometry" />
        </mxCell>
        <mxCell id="mST9L1KYjSmr3MNv_KCc-72" value="" style="line;strokeWidth=1;fillColor=none;align=left;verticalAlign=middle;spacingTop=-1;spacingLeft=3;spacingRight=3;rotatable=0;labelPosition=right;points=[];portConstraint=eastwest;strokeColor=inherit;" parent="mST9L1KYjSmr3MNv_KCc-70" vertex="1">
          <mxGeometry y="26" width="160" height="8" as="geometry" />
        </mxCell>
        <mxCell id="mST9L1KYjSmr3MNv_KCc-74" value="" style="endArrow=block;endSize=16;endFill=0;html=1;rounded=0;exitX=0.5;exitY=0;exitDx=0;exitDy=0;entryX=0.5;entryY=1;entryDx=0;entryDy=0;" parent="1" source="mST9L1KYjSmr3MNv_KCc-66" target="mST9L1KYjSmr3MNv_KCc-58" edge="1">
          <mxGeometry width="160" relative="1" as="geometry">
            <mxPoint x="770" y="3481" as="sourcePoint" />
            <mxPoint x="901" y="3342" as="targetPoint" />
          </mxGeometry>
        </mxCell>
        <mxCell id="mST9L1KYjSmr3MNv_KCc-75" value="" style="endArrow=none;html=1;rounded=0;exitX=0.5;exitY=0;exitDx=0;exitDy=0;" parent="1" source="mST9L1KYjSmr3MNv_KCc-62" edge="1">
          <mxGeometry width="50" height="50" relative="1" as="geometry">
            <mxPoint x="760" y="3591" as="sourcePoint" />
            <mxPoint x="900" y="3491" as="targetPoint" />
            <Array as="points">
              <mxPoint x="720" y="3491" />
            </Array>
          </mxGeometry>
        </mxCell>
        <mxCell id="mST9L1KYjSmr3MNv_KCc-76" value="" style="endArrow=none;html=1;rounded=0;exitX=0.5;exitY=0;exitDx=0;exitDy=0;" parent="1" source="mST9L1KYjSmr3MNv_KCc-70" edge="1">
          <mxGeometry width="50" height="50" relative="1" as="geometry">
            <mxPoint x="990" y="3541" as="sourcePoint" />
            <mxPoint x="900" y="3491" as="targetPoint" />
            <Array as="points">
              <mxPoint x="1080" y="3491" />
            </Array>
          </mxGeometry>
        </mxCell>
        <mxCell id="mST9L1KYjSmr3MNv_KCc-77" value="Request" style="swimlane;fontStyle=1;align=center;verticalAlign=top;childLayout=stackLayout;horizontal=1;startSize=26;horizontalStack=0;resizeParent=1;resizeParentMax=0;resizeLast=0;collapsible=1;marginBottom=0;whiteSpace=wrap;html=1;" parent="1" vertex="1">
          <mxGeometry x="4120" y="2580" width="300" height="230" as="geometry" />
        </mxCell>
        <mxCell id="mST9L1KYjSmr3MNv_KCc-78" value="- ID : int&amp;nbsp;&lt;br style=&quot;border-color: var(--border-color);&quot;&gt;- description : String&lt;br style=&quot;border-color: var(--border-color);&quot;&gt;- employeeID : int" style="text;strokeColor=none;fillColor=none;align=left;verticalAlign=top;spacingLeft=4;spacingRight=4;overflow=hidden;rotatable=0;points=[[0,0.5],[1,0.5]];portConstraint=eastwest;whiteSpace=wrap;html=1;" parent="mST9L1KYjSmr3MNv_KCc-77" vertex="1">
          <mxGeometry y="26" width="300" height="54" as="geometry" />
        </mxCell>
        <mxCell id="mST9L1KYjSmr3MNv_KCc-79" value="" style="line;strokeWidth=1;fillColor=none;align=left;verticalAlign=middle;spacingTop=-1;spacingLeft=3;spacingRight=3;rotatable=0;labelPosition=right;points=[];portConstraint=eastwest;strokeColor=inherit;" parent="mST9L1KYjSmr3MNv_KCc-77" vertex="1">
          <mxGeometry y="80" width="300" height="8" as="geometry" />
        </mxCell>
        <mxCell id="mST9L1KYjSmr3MNv_KCc-80" value="+ Request(int ID, String description, int employeeID)&lt;br&gt;+&amp;nbsp;getID() : int&lt;br style=&quot;border-color: var(--border-color);&quot;&gt;+ setID(int ID) : void&lt;br style=&quot;border-color: var(--border-color);&quot;&gt;+ getDescription() : String&amp;nbsp;&lt;br style=&quot;border-color: var(--border-color);&quot;&gt;+ setDescription(String&amp;nbsp;description) : void&lt;br&gt;+ getEmployeeID() : int&lt;br style=&quot;border-color: var(--border-color);&quot;&gt;+ setEmployeeID(int employeeID) : void&lt;br style=&quot;border-color: var(--border-color);&quot;&gt;+ getDepartmentID() : int&lt;br style=&quot;border-color: var(--border-color);&quot;&gt;+ set&lt;span style=&quot;border-color: var(--border-color); background-color: rgb(255, 255, 255);&quot;&gt;Department&lt;/span&gt;&lt;span style=&quot;border-color: var(--border-color); background-color: rgb(255, 255, 255);&quot;&gt;ID(int employeeID) : void&lt;/span&gt;" style="text;strokeColor=none;fillColor=none;align=left;verticalAlign=top;spacingLeft=4;spacingRight=4;overflow=hidden;rotatable=0;points=[[0,0.5],[1,0.5]];portConstraint=eastwest;whiteSpace=wrap;html=1;" parent="mST9L1KYjSmr3MNv_KCc-77" vertex="1">
          <mxGeometry y="88" width="300" height="142" as="geometry" />
        </mxCell>
        <mxCell id="mST9L1KYjSmr3MNv_KCc-81" value="Team" style="swimlane;fontStyle=1;align=center;verticalAlign=top;childLayout=stackLayout;horizontal=1;startSize=26;horizontalStack=0;resizeParent=1;resizeParentMax=0;resizeLast=0;collapsible=1;marginBottom=0;whiteSpace=wrap;html=1;" parent="1" vertex="1">
          <mxGeometry x="3310" y="1890" width="620" height="220" as="geometry" />
        </mxCell>
        <mxCell id="mST9L1KYjSmr3MNv_KCc-82" value="- head : Employee&lt;br&gt;- members : Employee[]&lt;br&gt;- schedual : Schedual" style="text;strokeColor=none;fillColor=none;align=left;verticalAlign=top;spacingLeft=4;spacingRight=4;overflow=hidden;rotatable=0;points=[[0,0.5],[1,0.5]];portConstraint=eastwest;whiteSpace=wrap;html=1;" parent="mST9L1KYjSmr3MNv_KCc-81" vertex="1">
          <mxGeometry y="26" width="620" height="54" as="geometry" />
        </mxCell>
        <mxCell id="mST9L1KYjSmr3MNv_KCc-83" value="" style="line;strokeWidth=1;fillColor=none;align=left;verticalAlign=middle;spacingTop=-1;spacingLeft=3;spacingRight=3;rotatable=0;labelPosition=right;points=[];portConstraint=eastwest;strokeColor=inherit;" parent="mST9L1KYjSmr3MNv_KCc-81" vertex="1">
          <mxGeometry y="80" width="620" height="8" as="geometry" />
        </mxCell>
        <mxCell id="mST9L1KYjSmr3MNv_KCc-84" value="+ Team(Employee head, Employee[] employees, Schedual schedual)&lt;br style=&quot;border-color: var(--border-color);&quot;&gt;+ getTeamHead() : Employee&lt;br&gt;+ getTeamMembers() : Employee[]&lt;br&gt;+ getSchedual() : Schedual&lt;br&gt;+ setTeamHead(int employeeID) : void&lt;br&gt;+ addMember(int employeeID) : void&lt;br&gt;+ removeMember(int employeeID) : void&lt;br&gt;+ setSchedual(Schedual schedual) : void" style="text;strokeColor=none;fillColor=none;align=left;verticalAlign=top;spacingLeft=4;spacingRight=4;overflow=hidden;rotatable=0;points=[[0,0.5],[1,0.5]];portConstraint=eastwest;whiteSpace=wrap;html=1;" parent="mST9L1KYjSmr3MNv_KCc-81" vertex="1">
          <mxGeometry y="88" width="620" height="132" as="geometry" />
        </mxCell>
        <mxCell id="mST9L1KYjSmr3MNv_KCc-86" value="" style="endArrow=block;endSize=16;endFill=0;html=1;rounded=0;exitX=0.5;exitY=0;exitDx=0;exitDy=0;entryX=0.5;entryY=1.005;entryDx=0;entryDy=0;entryPerimeter=0;" parent="1" source="mST9L1KYjSmr3MNv_KCc-22" target="mST9L1KYjSmr3MNv_KCc-37" edge="1">
          <mxGeometry x="0.714" y="-34" width="160" relative="1" as="geometry">
            <mxPoint x="2420" y="3170" as="sourcePoint" />
            <mxPoint x="2540" y="3140" as="targetPoint" />
            <Array as="points">
              <mxPoint x="2365" y="3160" />
              <mxPoint x="2530" y="3160" />
            </Array>
            <mxPoint as="offset" />
          </mxGeometry>
        </mxCell>
        <mxCell id="mST9L1KYjSmr3MNv_KCc-90" value="Schedual" style="swimlane;fontStyle=1;align=center;verticalAlign=top;childLayout=stackLayout;horizontal=1;startSize=26;horizontalStack=0;resizeParent=1;resizeParentMax=0;resizeLast=0;collapsible=1;marginBottom=0;whiteSpace=wrap;html=1;" parent="1" vertex="1">
          <mxGeometry x="3030" y="2230" width="240" height="190" as="geometry" />
        </mxCell>
        <mxCell id="mST9L1KYjSmr3MNv_KCc-91" value="- tasks : pair&amp;lt;Task, String&amp;gt;[]&lt;br&gt;- shiftStartTime : String&lt;br&gt;- shiftEndTime : String" style="text;strokeColor=none;fillColor=none;align=left;verticalAlign=top;spacingLeft=4;spacingRight=4;overflow=hidden;rotatable=0;points=[[0,0.5],[1,0.5]];portConstraint=eastwest;whiteSpace=wrap;html=1;" parent="mST9L1KYjSmr3MNv_KCc-90" vertex="1">
          <mxGeometry y="26" width="240" height="54" as="geometry" />
        </mxCell>
        <mxCell id="mST9L1KYjSmr3MNv_KCc-92" value="" style="line;strokeWidth=1;fillColor=none;align=left;verticalAlign=middle;spacingTop=-1;spacingLeft=3;spacingRight=3;rotatable=0;labelPosition=right;points=[];portConstraint=eastwest;strokeColor=inherit;" parent="mST9L1KYjSmr3MNv_KCc-90" vertex="1">
          <mxGeometry y="80" width="240" height="8" as="geometry" />
        </mxCell>
        <mxCell id="mST9L1KYjSmr3MNv_KCc-93" value="+ addTask(Task task, String date) : void&lt;br&gt;+ getTasks() : pair&amp;lt;Task, String&amp;gt;[]&lt;br&gt;+setShiftStartTime(String time) : void&lt;br&gt;+getShiftStartTime() : String&lt;br&gt;+setShiftEndTime(String time) : void&lt;br style=&quot;border-color: var(--border-color);&quot;&gt;+getShiftEndTime() : String" style="text;strokeColor=none;fillColor=none;align=left;verticalAlign=top;spacingLeft=4;spacingRight=4;overflow=hidden;rotatable=0;points=[[0,0.5],[1,0.5]];portConstraint=eastwest;whiteSpace=wrap;html=1;" parent="mST9L1KYjSmr3MNv_KCc-90" vertex="1">
          <mxGeometry y="88" width="240" height="102" as="geometry" />
        </mxCell>
        <mxCell id="mST9L1KYjSmr3MNv_KCc-94" value="Task" style="swimlane;fontStyle=1;align=center;verticalAlign=top;childLayout=stackLayout;horizontal=1;startSize=26;horizontalStack=0;resizeParent=1;resizeParentMax=0;resizeLast=0;collapsible=1;marginBottom=0;whiteSpace=wrap;html=1;" parent="1" vertex="1">
          <mxGeometry x="2700" y="2230" width="260" height="190" as="geometry" />
        </mxCell>
        <mxCell id="mST9L1KYjSmr3MNv_KCc-95" value="- name : String&lt;br&gt;- discription : String&lt;br&gt;- location : Location" style="text;strokeColor=none;fillColor=none;align=left;verticalAlign=top;spacingLeft=4;spacingRight=4;overflow=hidden;rotatable=0;points=[[0,0.5],[1,0.5]];portConstraint=eastwest;whiteSpace=wrap;html=1;" parent="mST9L1KYjSmr3MNv_KCc-94" vertex="1">
          <mxGeometry y="26" width="260" height="54" as="geometry" />
        </mxCell>
        <mxCell id="mST9L1KYjSmr3MNv_KCc-96" value="" style="line;strokeWidth=1;fillColor=none;align=left;verticalAlign=middle;spacingTop=-1;spacingLeft=3;spacingRight=3;rotatable=0;labelPosition=right;points=[];portConstraint=eastwest;strokeColor=inherit;" parent="mST9L1KYjSmr3MNv_KCc-94" vertex="1">
          <mxGeometry y="80" width="260" height="8" as="geometry" />
        </mxCell>
        <mxCell id="mST9L1KYjSmr3MNv_KCc-97" value="+ getTaskName() : String&lt;br&gt;+ getTaskDiscription() : String&lt;br&gt;+ getLocation() : Location&lt;br&gt;+ setTaskName(String name) : void&lt;br&gt;+ setTaskDiscription(String discription) : void&lt;br&gt;+ setTaskLocation() : void&lt;br&gt;" style="text;strokeColor=none;fillColor=none;align=left;verticalAlign=top;spacingLeft=4;spacingRight=4;overflow=hidden;rotatable=0;points=[[0,0.5],[1,0.5]];portConstraint=eastwest;whiteSpace=wrap;html=1;" parent="mST9L1KYjSmr3MNv_KCc-94" vertex="1">
          <mxGeometry y="88" width="260" height="102" as="geometry" />
        </mxCell>
        <mxCell id="mST9L1KYjSmr3MNv_KCc-99" value="Recruitment Agencie" style="swimlane;fontStyle=1;align=center;verticalAlign=top;childLayout=stackLayout;horizontal=1;startSize=26;horizontalStack=0;resizeParent=1;resizeParentMax=0;resizeLast=0;collapsible=1;marginBottom=0;whiteSpace=wrap;html=1;" parent="1" vertex="1">
          <mxGeometry x="990" y="3390" width="160" height="34" as="geometry" />
        </mxCell>
        <mxCell id="mST9L1KYjSmr3MNv_KCc-100" value="" style="line;strokeWidth=1;fillColor=none;align=left;verticalAlign=middle;spacingTop=-1;spacingLeft=3;spacingRight=3;rotatable=0;labelPosition=right;points=[];portConstraint=eastwest;strokeColor=inherit;" parent="mST9L1KYjSmr3MNv_KCc-99" vertex="1">
          <mxGeometry y="26" width="160" height="8" as="geometry" />
        </mxCell>
        <mxCell id="mST9L1KYjSmr3MNv_KCc-101" value="" style="endArrow=none;html=1;rounded=0;exitX=0;exitY=0.5;exitDx=0;exitDy=0;" parent="1" source="mST9L1KYjSmr3MNv_KCc-99" edge="1">
          <mxGeometry width="50" height="50" relative="1" as="geometry">
            <mxPoint x="820" y="3400" as="sourcePoint" />
            <mxPoint x="900" y="3407" as="targetPoint" />
          </mxGeometry>
        </mxCell>
        <mxCell id="mST9L1KYjSmr3MNv_KCc-102" value="Transportation Department" style="swimlane;fontStyle=1;align=center;verticalAlign=top;childLayout=stackLayout;horizontal=1;startSize=26;horizontalStack=0;resizeParent=1;resizeParentMax=0;resizeLast=0;collapsible=1;marginBottom=0;whiteSpace=wrap;html=1;" parent="1" vertex="1">
          <mxGeometry x="960" y="2770" width="520" height="90" as="geometry" />
        </mxCell>
        <mxCell id="mST9L1KYjSmr3MNv_KCc-104" value="" style="line;strokeWidth=1;fillColor=none;align=left;verticalAlign=middle;spacingTop=-1;spacingLeft=3;spacingRight=3;rotatable=0;labelPosition=right;points=[];portConstraint=eastwest;strokeColor=inherit;" parent="mST9L1KYjSmr3MNv_KCc-102" vertex="1">
          <mxGeometry y="26" width="520" height="8" as="geometry" />
        </mxCell>
        <mxCell id="mST9L1KYjSmr3MNv_KCc-105" value="+ ContactTransportationCompany(String companyName, Request request)&amp;nbsp; : void&lt;br&gt;+ AddTransportationTimeToEmployeeSchedual(int employeeID, String pickUpTime) : void&lt;br&gt;+ DisplayTransportationCompanyRequestValidation(String companyName,int requestID) : void" style="text;strokeColor=none;fillColor=none;align=left;verticalAlign=top;spacingLeft=4;spacingRight=4;overflow=hidden;rotatable=0;points=[[0,0.5],[1,0.5]];portConstraint=eastwest;whiteSpace=wrap;html=1;" parent="mST9L1KYjSmr3MNv_KCc-102" vertex="1">
          <mxGeometry y="34" width="520" height="56" as="geometry" />
        </mxCell>
        <mxCell id="mST9L1KYjSmr3MNv_KCc-106" value="Insurance Department" style="swimlane;fontStyle=1;align=center;verticalAlign=top;childLayout=stackLayout;horizontal=1;startSize=26;horizontalStack=0;resizeParent=1;resizeParentMax=0;resizeLast=0;collapsible=1;marginBottom=0;whiteSpace=wrap;html=1;" parent="1" vertex="1">
          <mxGeometry x="2140" y="2490" width="510" height="140" as="geometry" />
        </mxCell>
        <mxCell id="mST9L1KYjSmr3MNv_KCc-108" value="" style="line;strokeWidth=1;fillColor=none;align=left;verticalAlign=middle;spacingTop=-1;spacingLeft=3;spacingRight=3;rotatable=0;labelPosition=right;points=[];portConstraint=eastwest;strokeColor=inherit;" parent="mST9L1KYjSmr3MNv_KCc-106" vertex="1">
          <mxGeometry y="26" width="510" height="8" as="geometry" />
        </mxCell>
        <mxCell id="mST9L1KYjSmr3MNv_KCc-109" value="+ setEmployeeInsurance(Report details, int employeeID) : void&lt;br&gt;+ AddDependantsToEmployeeInsurance(Dependants[], int employeeID) : void&lt;br&gt;+ getEmployeeInsurance(int employeeID) : void&lt;br&gt;+ setEmployeeDependants(int employeeID, Dependant[] dependants) : void&lt;br&gt;+ ContactInsuranceCompany(String companyName, Request request) : void&lt;br&gt;+ DisplayInsuranceCompanyValidation(int requestID) : void" style="text;strokeColor=none;fillColor=none;align=left;verticalAlign=top;spacingLeft=4;spacingRight=4;overflow=hidden;rotatable=0;points=[[0,0.5],[1,0.5]];portConstraint=eastwest;whiteSpace=wrap;html=1;" parent="mST9L1KYjSmr3MNv_KCc-106" vertex="1">
          <mxGeometry y="34" width="510" height="106" as="geometry" />
        </mxCell>
        <mxCell id="mST9L1KYjSmr3MNv_KCc-110" value="Recycling Department" style="swimlane;fontStyle=1;align=center;verticalAlign=top;childLayout=stackLayout;horizontal=1;startSize=26;horizontalStack=0;resizeParent=1;resizeParentMax=0;resizeLast=0;collapsible=1;marginBottom=0;whiteSpace=wrap;html=1;" parent="1" vertex="1">
          <mxGeometry x="1010" y="2490" width="420" height="90" as="geometry" />
        </mxCell>
        <mxCell id="mST9L1KYjSmr3MNv_KCc-112" value="" style="line;strokeWidth=1;fillColor=none;align=left;verticalAlign=middle;spacingTop=-1;spacingLeft=3;spacingRight=3;rotatable=0;labelPosition=right;points=[];portConstraint=eastwest;strokeColor=inherit;" parent="mST9L1KYjSmr3MNv_KCc-110" vertex="1">
          <mxGeometry y="26" width="420" height="8" as="geometry" />
        </mxCell>
        <mxCell id="mST9L1KYjSmr3MNv_KCc-113" value="+ UpdateWasteReport(Report report) : void&lt;br&gt;+ getWasteReport() : Report&lt;br&gt;+ DisplayWasteReport() : void&lt;br&gt;" style="text;strokeColor=none;fillColor=none;align=left;verticalAlign=top;spacingLeft=4;spacingRight=4;overflow=hidden;rotatable=0;points=[[0,0.5],[1,0.5]];portConstraint=eastwest;whiteSpace=wrap;html=1;" parent="mST9L1KYjSmr3MNv_KCc-110" vertex="1">
          <mxGeometry y="34" width="420" height="56" as="geometry" />
        </mxCell>
        <mxCell id="mST9L1KYjSmr3MNv_KCc-114" value="Laboratory Department" style="swimlane;fontStyle=1;align=center;verticalAlign=top;childLayout=stackLayout;horizontal=1;startSize=26;horizontalStack=0;resizeParent=1;resizeParentMax=0;resizeLast=0;collapsible=1;marginBottom=0;whiteSpace=wrap;html=1;" parent="1" vertex="1">
          <mxGeometry x="1020" y="2280" width="460" height="160" as="geometry" />
        </mxCell>
        <mxCell id="mST9L1KYjSmr3MNv_KCc-116" value="" style="line;strokeWidth=1;fillColor=none;align=left;verticalAlign=middle;spacingTop=-1;spacingLeft=3;spacingRight=3;rotatable=0;labelPosition=right;points=[];portConstraint=eastwest;strokeColor=inherit;" parent="mST9L1KYjSmr3MNv_KCc-114" vertex="1">
          <mxGeometry y="26" width="460" height="8" as="geometry" />
        </mxCell>
        <mxCell id="mST9L1KYjSmr3MNv_KCc-117" value="+ DisplayWasteReport() : void&lt;br&gt;+ getWasteReport() : Report&lt;br&gt;+ addWasteClasificationReport(Report report) : void&lt;br&gt;+ DisplayWasteClassificationReport() : void&lt;br style=&quot;border-color: var(--border-color);&quot;&gt;+ getWasteClassificationReport() : Report&amp;nbsp;&lt;br&gt;+ getLabReport(int reportID) : Report&lt;br&gt;+ getAllLabReports() : Report[]&lt;br&gt;+ DisplayLabReport(int reportID) : void" style="text;strokeColor=none;fillColor=none;align=left;verticalAlign=top;spacingLeft=4;spacingRight=4;overflow=hidden;rotatable=0;points=[[0,0.5],[1,0.5]];portConstraint=eastwest;whiteSpace=wrap;html=1;" parent="mST9L1KYjSmr3MNv_KCc-114" vertex="1">
          <mxGeometry y="34" width="460" height="126" as="geometry" />
        </mxCell>
        <mxCell id="mST9L1KYjSmr3MNv_KCc-118" value="Maintenance Department" style="swimlane;fontStyle=1;align=center;verticalAlign=top;childLayout=stackLayout;horizontal=1;startSize=26;horizontalStack=0;resizeParent=1;resizeParentMax=0;resizeLast=0;collapsible=1;marginBottom=0;whiteSpace=wrap;html=1;" parent="1" vertex="1">
          <mxGeometry x="1190" y="2950" width="290" height="80" as="geometry" />
        </mxCell>
        <mxCell id="mST9L1KYjSmr3MNv_KCc-120" value="" style="line;strokeWidth=1;fillColor=none;align=left;verticalAlign=middle;spacingTop=-1;spacingLeft=3;spacingRight=3;rotatable=0;labelPosition=right;points=[];portConstraint=eastwest;strokeColor=inherit;" parent="mST9L1KYjSmr3MNv_KCc-118" vertex="1">
          <mxGeometry y="26" width="290" height="8" as="geometry" />
        </mxCell>
        <mxCell id="mST9L1KYjSmr3MNv_KCc-121" value="+ DisplayMaintenanceRequests() : void&lt;br&gt;+ ValidateMaintenanceRequest(int requestID) : void" style="text;strokeColor=none;fillColor=none;align=left;verticalAlign=top;spacingLeft=4;spacingRight=4;overflow=hidden;rotatable=0;points=[[0,0.5],[1,0.5]];portConstraint=eastwest;whiteSpace=wrap;html=1;" parent="mST9L1KYjSmr3MNv_KCc-118" vertex="1">
          <mxGeometry y="34" width="290" height="46" as="geometry" />
        </mxCell>
        <mxCell id="mST9L1KYjSmr3MNv_KCc-122" value="Legal Affairs Department" style="swimlane;fontStyle=1;align=center;verticalAlign=top;childLayout=stackLayout;horizontal=1;startSize=26;horizontalStack=0;resizeParent=1;resizeParentMax=0;resizeLast=0;collapsible=1;marginBottom=0;whiteSpace=wrap;html=1;" parent="1" vertex="1">
          <mxGeometry x="2020" y="2960" width="290" height="90" as="geometry" />
        </mxCell>
        <mxCell id="mST9L1KYjSmr3MNv_KCc-124" value="" style="line;strokeWidth=1;fillColor=none;align=left;verticalAlign=middle;spacingTop=-1;spacingLeft=3;spacingRight=3;rotatable=0;labelPosition=right;points=[];portConstraint=eastwest;strokeColor=inherit;" parent="mST9L1KYjSmr3MNv_KCc-122" vertex="1">
          <mxGeometry y="26" width="290" height="8" as="geometry" />
        </mxCell>
        <mxCell id="mST9L1KYjSmr3MNv_KCc-125" value="+ fireEmployee(int EmployeeID)&lt;br&gt;+ getAllLegalDocuments() : Report[]&lt;br&gt;+ displayLegalDocument(int reportID) : void" style="text;strokeColor=none;fillColor=none;align=left;verticalAlign=top;spacingLeft=4;spacingRight=4;overflow=hidden;rotatable=0;points=[[0,0.5],[1,0.5]];portConstraint=eastwest;whiteSpace=wrap;html=1;" parent="mST9L1KYjSmr3MNv_KCc-122" vertex="1">
          <mxGeometry y="34" width="290" height="56" as="geometry" />
        </mxCell>
        <mxCell id="mST9L1KYjSmr3MNv_KCc-126" value="HR Department" style="swimlane;fontStyle=1;align=center;verticalAlign=top;childLayout=stackLayout;horizontal=1;startSize=26;horizontalStack=0;resizeParent=1;resizeParentMax=0;resizeLast=0;collapsible=1;marginBottom=0;whiteSpace=wrap;html=1;" parent="1" vertex="1">
          <mxGeometry x="485" y="2770" width="450" height="260" as="geometry" />
        </mxCell>
        <mxCell id="mST9L1KYjSmr3MNv_KCc-128" value="" style="line;strokeWidth=1;fillColor=none;align=left;verticalAlign=middle;spacingTop=-1;spacingLeft=3;spacingRight=3;rotatable=0;labelPosition=right;points=[];portConstraint=eastwest;strokeColor=inherit;" parent="mST9L1KYjSmr3MNv_KCc-126" vertex="1">
          <mxGeometry y="26" width="450" height="8" as="geometry" />
        </mxCell>
        <mxCell id="mST9L1KYjSmr3MNv_KCc-129" value="+ CreateTeam(Employee head, Employee[] employees, Schedual schedual) : void&lt;br&gt;+ AddEmployeeToTeam(int teamID, int employeeID) : void&lt;br&gt;+ RemoveEmployeeTeam(int teamID, int employeeID) : void&lt;br&gt;+ AddTaskToEmployee(int employeeID, Task task, String date) : void&lt;br&gt;+ ResetEmployeeSchedual(int employeeID, Schedual newSchedual) : void&lt;br&gt;+ setEmployeeMainWorkLocation(int employeeID, int locationID) : void&lt;br&gt;+ getEmployeeMainWorkLocation(int employeeID) : void&lt;br&gt;+ getTeamEmployees(int teamID) : void&lt;br&gt;+ getEmployeeTeam(int employeeID) : void&lt;br&gt;+ ContactRecruitmentAgencie(String companyName, Request request) : void&lt;br&gt;+ DisplayRecruitmentAgencieRequestValidation(String companyName) : void&lt;br&gt;+ DisplayHiringRequests() : void&lt;br&gt;+ ValidateHiringRequest(int requestID) : void&lt;br&gt;+ SendHiaringRequestToCompanyManager(int requestID) : void&lt;br&gt;+ DisplayHiaringRequestValidationFromCompanyManager(int requestID) : void" style="text;strokeColor=none;fillColor=none;align=left;verticalAlign=top;spacingLeft=4;spacingRight=4;overflow=hidden;rotatable=0;points=[[0,0.5],[1,0.5]];portConstraint=eastwest;whiteSpace=wrap;html=1;" parent="mST9L1KYjSmr3MNv_KCc-126" vertex="1">
          <mxGeometry y="34" width="450" height="226" as="geometry" />
        </mxCell>
        <mxCell id="mST9L1KYjSmr3MNv_KCc-130" value="Industry Development Department" style="swimlane;fontStyle=1;align=center;verticalAlign=top;childLayout=stackLayout;horizontal=1;startSize=26;horizontalStack=0;resizeParent=1;resizeParentMax=0;resizeLast=0;collapsible=1;marginBottom=0;whiteSpace=wrap;html=1;" parent="1" vertex="1">
          <mxGeometry x="485" y="2450" width="500" height="140" as="geometry" />
        </mxCell>
        <mxCell id="mST9L1KYjSmr3MNv_KCc-132" value="" style="line;strokeWidth=1;fillColor=none;align=left;verticalAlign=middle;spacingTop=-1;spacingLeft=3;spacingRight=3;rotatable=0;labelPosition=right;points=[];portConstraint=eastwest;strokeColor=inherit;" parent="mST9L1KYjSmr3MNv_KCc-130" vertex="1">
          <mxGeometry y="26" width="500" height="8" as="geometry" />
        </mxCell>
        <mxCell id="mST9L1KYjSmr3MNv_KCc-133" value="+ ContactSpecializedToolCompanyCompany(String companyName, Request request) : void&lt;br&gt;+ SendToolRequestPurchaseToFinancialDepartment(Request request) : void&lt;br&gt;+ DisplayFinancialDepartmentValidation(int requestID) : void&amp;nbsp;&lt;br&gt;+ ValidtaeToolRequestFromExternalCompany(String companyName) : void&lt;br&gt;+ DisplayEmployeeToolRequest(int requestID) : void&lt;br&gt;+ ValidateToolRequestFromFinancialDepartment(int requestID) : void" style="text;strokeColor=none;fillColor=none;align=left;verticalAlign=top;spacingLeft=4;spacingRight=4;overflow=hidden;rotatable=0;points=[[0,0.5],[1,0.5]];portConstraint=eastwest;whiteSpace=wrap;html=1;" parent="mST9L1KYjSmr3MNv_KCc-130" vertex="1">
          <mxGeometry y="34" width="500" height="106" as="geometry" />
        </mxCell>
        <mxCell id="mST9L1KYjSmr3MNv_KCc-134" value="Production Department" style="swimlane;fontStyle=1;align=center;verticalAlign=top;childLayout=stackLayout;horizontal=1;startSize=26;horizontalStack=0;resizeParent=1;resizeParentMax=0;resizeLast=0;collapsible=1;marginBottom=0;whiteSpace=wrap;html=1;" parent="1" vertex="1">
          <mxGeometry x="1620" y="2490" width="320" height="90" as="geometry" />
        </mxCell>
        <mxCell id="mST9L1KYjSmr3MNv_KCc-136" value="" style="line;strokeWidth=1;fillColor=none;align=left;verticalAlign=middle;spacingTop=-1;spacingLeft=3;spacingRight=3;rotatable=0;labelPosition=right;points=[];portConstraint=eastwest;strokeColor=inherit;" parent="mST9L1KYjSmr3MNv_KCc-134" vertex="1">
          <mxGeometry y="26" width="320" height="8" as="geometry" />
        </mxCell>
        <mxCell id="mST9L1KYjSmr3MNv_KCc-137" value="+ getProductionReport() : Report&lt;br&gt;+ UpdateProductionReport(Report report) : void&lt;br&gt;+ CalculateProductiontoPridiction() : String" style="text;strokeColor=none;fillColor=none;align=left;verticalAlign=top;spacingLeft=4;spacingRight=4;overflow=hidden;rotatable=0;points=[[0,0.5],[1,0.5]];portConstraint=eastwest;whiteSpace=wrap;html=1;" parent="mST9L1KYjSmr3MNv_KCc-134" vertex="1">
          <mxGeometry y="34" width="320" height="56" as="geometry" />
        </mxCell>
        <mxCell id="mST9L1KYjSmr3MNv_KCc-138" value="Financial Department" style="swimlane;fontStyle=1;align=center;verticalAlign=top;childLayout=stackLayout;horizontal=1;startSize=26;horizontalStack=0;resizeParent=1;resizeParentMax=0;resizeLast=0;collapsible=1;marginBottom=0;whiteSpace=wrap;html=1;" parent="1" vertex="1">
          <mxGeometry x="1545" y="2770" width="460" height="230" as="geometry" />
        </mxCell>
        <mxCell id="mST9L1KYjSmr3MNv_KCc-140" value="" style="line;strokeWidth=1;fillColor=none;align=left;verticalAlign=middle;spacingTop=-1;spacingLeft=3;spacingRight=3;rotatable=0;labelPosition=right;points=[];portConstraint=eastwest;strokeColor=inherit;" parent="mST9L1KYjSmr3MNv_KCc-138" vertex="1">
          <mxGeometry y="26" width="460" height="8" as="geometry" />
        </mxCell>
        <mxCell id="mST9L1KYjSmr3MNv_KCc-141" value="+ setEmployeeSalary(employeeID) : void&lt;br&gt;+ getEmployeeSalary(EmployeeID) : float&lt;br&gt;+ getCompanyFinancialReport() : void&lt;br&gt;+ UpdateCompanyFiancialReport(Report report) : void&lt;br&gt;+ DisplayDepartmentPurchaseRequest(int departmentID) : void&lt;br&gt;+ ValidateDepartmentPurchaseRequest(int requestID) : void&lt;br&gt;+ DisplayToolRequestPurchase() : void&lt;br style=&quot;border-color: var(--border-color);&quot;&gt;+ ValidateToolRequestPurchase(int requestID) : void&lt;br&gt;+ SendPurchaseRequestToCompanyManager(int requestID)&amp;nbsp; :void&lt;br&gt;+ DisplayCompnayManagerRequestValidation() : void&lt;br&gt;+ sendToolRequestPurchaseToCompanyManager(int requestID) : void&lt;br style=&quot;border-color: var(--border-color);&quot;&gt;+ ValidateToolRequestPurchaseRequestFromCompanyManager(int requestID) : void" style="text;strokeColor=none;fillColor=none;align=left;verticalAlign=top;spacingLeft=4;spacingRight=4;overflow=hidden;rotatable=0;points=[[0,0.5],[1,0.5]];portConstraint=eastwest;whiteSpace=wrap;html=1;" parent="mST9L1KYjSmr3MNv_KCc-138" vertex="1">
          <mxGeometry y="34" width="460" height="196" as="geometry" />
        </mxCell>
        <mxCell id="mST9L1KYjSmr3MNv_KCc-142" value="Time Controle Management Department" style="swimlane;fontStyle=1;align=center;verticalAlign=top;childLayout=stackLayout;horizontal=1;startSize=26;horizontalStack=0;resizeParent=1;resizeParentMax=0;resizeLast=0;collapsible=1;marginBottom=0;whiteSpace=wrap;html=1;" parent="1" vertex="1">
          <mxGeometry x="2070" y="2820" width="260" height="80" as="geometry" />
        </mxCell>
        <mxCell id="mST9L1KYjSmr3MNv_KCc-144" value="" style="line;strokeWidth=1;fillColor=none;align=left;verticalAlign=middle;spacingTop=-1;spacingLeft=3;spacingRight=3;rotatable=0;labelPosition=right;points=[];portConstraint=eastwest;strokeColor=inherit;" parent="mST9L1KYjSmr3MNv_KCc-142" vertex="1">
          <mxGeometry y="26" width="260" height="8" as="geometry" />
        </mxCell>
        <mxCell id="mST9L1KYjSmr3MNv_KCc-145" value="+ EmployeeEntrance(int employeeID) : void&lt;br&gt;+ EmployeeExit(int employeeID) : void" style="text;strokeColor=none;fillColor=none;align=left;verticalAlign=top;spacingLeft=4;spacingRight=4;overflow=hidden;rotatable=0;points=[[0,0.5],[1,0.5]];portConstraint=eastwest;whiteSpace=wrap;html=1;" parent="mST9L1KYjSmr3MNv_KCc-142" vertex="1">
          <mxGeometry y="34" width="260" height="46" as="geometry" />
        </mxCell>
        <mxCell id="mST9L1KYjSmr3MNv_KCc-146" value="Insurance" style="swimlane;fontStyle=1;align=center;verticalAlign=top;childLayout=stackLayout;horizontal=1;startSize=26;horizontalStack=0;resizeParent=1;resizeParentMax=0;resizeLast=0;collapsible=1;marginBottom=0;whiteSpace=wrap;html=1;" parent="1" vertex="1">
          <mxGeometry x="2250" y="2235" width="290" height="210" as="geometry" />
        </mxCell>
        <mxCell id="mST9L1KYjSmr3MNv_KCc-147" value="- dependants : Dependant[]&lt;br&gt;- insuranceDetails : report&lt;br&gt;- employeeID : int" style="text;strokeColor=none;fillColor=none;align=left;verticalAlign=top;spacingLeft=4;spacingRight=4;overflow=hidden;rotatable=0;points=[[0,0.5],[1,0.5]];portConstraint=eastwest;whiteSpace=wrap;html=1;" parent="mST9L1KYjSmr3MNv_KCc-146" vertex="1">
          <mxGeometry y="26" width="290" height="54" as="geometry" />
        </mxCell>
        <mxCell id="mST9L1KYjSmr3MNv_KCc-148" value="" style="line;strokeWidth=1;fillColor=none;align=left;verticalAlign=middle;spacingTop=-1;spacingLeft=3;spacingRight=3;rotatable=0;labelPosition=right;points=[];portConstraint=eastwest;strokeColor=inherit;" parent="mST9L1KYjSmr3MNv_KCc-146" vertex="1">
          <mxGeometry y="80" width="290" height="8" as="geometry" />
        </mxCell>
        <mxCell id="mST9L1KYjSmr3MNv_KCc-149" value="+ addDependant(dependantID) : void&lt;br&gt;+ removeDependant(dependantID) : void&lt;br&gt;+ getDependants() : Dependant[]&lt;br&gt;+ getInsuranceDetails() : Report&lt;br&gt;+ setInsuranceDetails(Report insurance) : void&lt;br&gt;+ setDependants(Dependant[] dependants) : void" style="text;strokeColor=none;fillColor=none;align=left;verticalAlign=top;spacingLeft=4;spacingRight=4;overflow=hidden;rotatable=0;points=[[0,0.5],[1,0.5]];portConstraint=eastwest;whiteSpace=wrap;html=1;" parent="mST9L1KYjSmr3MNv_KCc-146" vertex="1">
          <mxGeometry y="88" width="290" height="122" as="geometry" />
        </mxCell>
        <mxCell id="mST9L1KYjSmr3MNv_KCc-150" value="Dependant" style="swimlane;fontStyle=1;align=center;verticalAlign=top;childLayout=stackLayout;horizontal=1;startSize=26;horizontalStack=0;resizeParent=1;resizeParentMax=0;resizeLast=0;collapsible=1;marginBottom=0;whiteSpace=wrap;html=1;" parent="1" vertex="1">
          <mxGeometry x="2315" y="2071" width="160" height="118" as="geometry" />
        </mxCell>
        <mxCell id="mST9L1KYjSmr3MNv_KCc-151" value="- id : int&lt;br&gt;- name : String&lt;br&gt;- age : int&lt;br&gt;- gender : String&lt;br&gt;- relationshipWithEmployee" style="text;strokeColor=none;fillColor=none;align=left;verticalAlign=top;spacingLeft=4;spacingRight=4;overflow=hidden;rotatable=0;points=[[0,0.5],[1,0.5]];portConstraint=eastwest;whiteSpace=wrap;html=1;" parent="mST9L1KYjSmr3MNv_KCc-150" vertex="1">
          <mxGeometry y="26" width="160" height="84" as="geometry" />
        </mxCell>
        <mxCell id="mST9L1KYjSmr3MNv_KCc-152" value="" style="line;strokeWidth=1;fillColor=none;align=left;verticalAlign=middle;spacingTop=-1;spacingLeft=3;spacingRight=3;rotatable=0;labelPosition=right;points=[];portConstraint=eastwest;strokeColor=inherit;" parent="mST9L1KYjSmr3MNv_KCc-150" vertex="1">
          <mxGeometry y="110" width="160" height="8" as="geometry" />
        </mxCell>
        <mxCell id="mST9L1KYjSmr3MNv_KCc-158" value="" style="endArrow=block;endSize=16;endFill=0;html=1;rounded=0;entryX=0.5;entryY=1.003;entryDx=0;entryDy=0;entryPerimeter=0;exitX=0.5;exitY=0;exitDx=0;exitDy=0;" parent="1" source="mST9L1KYjSmr3MNv_KCc-42" target="mST9L1KYjSmr3MNv_KCc-4" edge="1">
          <mxGeometry x="0.011" y="-20" width="160" relative="1" as="geometry">
            <mxPoint x="3310" y="3190" as="sourcePoint" />
            <mxPoint x="3470" y="3190" as="targetPoint" />
            <mxPoint as="offset" />
          </mxGeometry>
        </mxCell>
        <mxCell id="mST9L1KYjSmr3MNv_KCc-159" value="" style="endArrow=none;html=1;rounded=0;exitX=0.5;exitY=0;exitDx=0;exitDy=0;" parent="1" source="mST9L1KYjSmr3MNv_KCc-6" edge="1">
          <mxGeometry width="50" height="50" relative="1" as="geometry">
            <mxPoint x="3620" y="2930" as="sourcePoint" />
            <mxPoint x="3620" y="3080" as="targetPoint" />
            <Array as="points">
              <mxPoint x="3140" y="3080" />
            </Array>
          </mxGeometry>
        </mxCell>
        <mxCell id="mST9L1KYjSmr3MNv_KCc-160" value="" style="endArrow=none;html=1;rounded=0;exitX=0.5;exitY=0;exitDx=0;exitDy=0;" parent="1" source="mST9L1KYjSmr3MNv_KCc-38" edge="1">
          <mxGeometry width="50" height="50" relative="1" as="geometry">
            <mxPoint x="3380" y="3090" as="sourcePoint" />
            <mxPoint x="3380" y="3080" as="targetPoint" />
          </mxGeometry>
        </mxCell>
        <mxCell id="mST9L1KYjSmr3MNv_KCc-161" value="" style="endArrow=none;html=1;rounded=0;exitX=0.5;exitY=0;exitDx=0;exitDy=0;" parent="1" source="mST9L1KYjSmr3MNv_KCc-10" edge="1">
          <mxGeometry width="50" height="50" relative="1" as="geometry">
            <mxPoint x="3780" y="3110" as="sourcePoint" />
            <mxPoint x="3620" y="3080" as="targetPoint" />
            <Array as="points">
              <mxPoint x="3880" y="3080" />
            </Array>
          </mxGeometry>
        </mxCell>
        <mxCell id="mST9L1KYjSmr3MNv_KCc-162" value="" style="endArrow=none;html=1;rounded=0;entryX=0.5;entryY=0;entryDx=0;entryDy=0;" parent="1" target="mST9L1KYjSmr3MNv_KCc-50" edge="1">
          <mxGeometry width="50" height="50" relative="1" as="geometry">
            <mxPoint x="3880" y="3080" as="sourcePoint" />
            <mxPoint x="4030" y="3090" as="targetPoint" />
            <Array as="points">
              <mxPoint x="4140" y="3080" />
            </Array>
          </mxGeometry>
        </mxCell>
        <mxCell id="mST9L1KYjSmr3MNv_KCc-163" value="" style="endArrow=none;html=1;rounded=0;exitX=0.5;exitY=0;exitDx=0;exitDy=0;" parent="1" source="mST9L1KYjSmr3MNv_KCc-46" edge="1">
          <mxGeometry width="50" height="50" relative="1" as="geometry">
            <mxPoint x="3190" y="3130" as="sourcePoint" />
            <mxPoint x="3140" y="3080" as="targetPoint" />
            <Array as="points">
              <mxPoint x="2940" y="3080" />
            </Array>
          </mxGeometry>
        </mxCell>
        <mxCell id="mST9L1KYjSmr3MNv_KCc-164" value="" style="endArrow=none;html=1;rounded=0;entryX=0.522;entryY=-0.001;entryDx=0;entryDy=0;entryPerimeter=0;" parent="1" edge="1">
          <mxGeometry width="50" height="50" relative="1" as="geometry">
            <mxPoint x="4135" y="3080" as="sourcePoint" />
            <mxPoint x="4375.06" y="3129.8500000000004" as="targetPoint" />
            <Array as="points">
              <mxPoint x="4375" y="3080" />
            </Array>
          </mxGeometry>
        </mxCell>
        <mxCell id="mST9L1KYjSmr3MNv_KCc-166" value="" style="endArrow=diamondThin;endFill=1;endSize=24;html=1;rounded=0;exitX=1;exitY=0.412;exitDx=0;exitDy=0;exitPerimeter=0;entryX=-0.001;entryY=0.407;entryDx=0;entryDy=0;entryPerimeter=0;" parent="1" source="mST9L1KYjSmr3MNv_KCc-97" target="mST9L1KYjSmr3MNv_KCc-93" edge="1">
          <mxGeometry width="160" relative="1" as="geometry">
            <mxPoint x="2961" y="2360" as="sourcePoint" />
            <mxPoint x="3030" y="2360" as="targetPoint" />
          </mxGeometry>
        </mxCell>
        <mxCell id="mST9L1KYjSmr3MNv_KCc-167" value="" style="endArrow=diamondThin;endFill=1;endSize=24;html=1;rounded=0;exitX=0.5;exitY=0;exitDx=0;exitDy=0;entryX=0.499;entryY=1.012;entryDx=0;entryDy=0;entryPerimeter=0;" parent="1" source="mST9L1KYjSmr3MNv_KCc-1" target="mST9L1KYjSmr3MNv_KCc-84" edge="1">
          <mxGeometry width="160" relative="1" as="geometry">
            <mxPoint x="3570" y="2180" as="sourcePoint" />
            <mxPoint x="3639" y="2180" as="targetPoint" />
          </mxGeometry>
        </mxCell>
        <mxCell id="mST9L1KYjSmr3MNv_KCc-169" value="" style="endArrow=diamondThin;endFill=0;endSize=24;html=1;rounded=0;entryX=-0.003;entryY=1.005;entryDx=0;entryDy=0;entryPerimeter=0;exitX=0.5;exitY=0;exitDx=0;exitDy=0;" parent="1" source="mST9L1KYjSmr3MNv_KCc-90" target="mST9L1KYjSmr3MNv_KCc-84" edge="1">
          <mxGeometry width="160" relative="1" as="geometry">
            <mxPoint x="3120" y="2250" as="sourcePoint" />
            <mxPoint x="3280" y="2250" as="targetPoint" />
          </mxGeometry>
        </mxCell>
        <mxCell id="mST9L1KYjSmr3MNv_KCc-171" value="" style="endArrow=diamondThin;endFill=1;endSize=24;html=1;rounded=0;exitX=0.5;exitY=0;exitDx=0;exitDy=0;entryX=-0.005;entryY=0.92;entryDx=0;entryDy=0;entryPerimeter=0;" parent="1" source="mST9L1KYjSmr3MNv_KCc-34" target="mST9L1KYjSmr3MNv_KCc-33" edge="1">
          <mxGeometry width="160" relative="1" as="geometry">
            <mxPoint x="2589" y="2659.4700000000003" as="sourcePoint" />
            <mxPoint x="2520" y="2659.4700000000003" as="targetPoint" />
            <Array as="points">
              <mxPoint x="2530" y="2830" />
            </Array>
          </mxGeometry>
        </mxCell>
        <mxCell id="mST9L1KYjSmr3MNv_KCc-172" value="" style="endArrow=diamondThin;endFill=1;endSize=24;html=1;rounded=0;entryX=0.5;entryY=0;entryDx=0;entryDy=0;" parent="1" source="mST9L1KYjSmr3MNv_KCc-149" target="mST9L1KYjSmr3MNv_KCc-106" edge="1">
          <mxGeometry width="160" relative="1" as="geometry">
            <mxPoint x="2340" y="2465" as="sourcePoint" />
            <mxPoint x="2410" y="2465" as="targetPoint" />
          </mxGeometry>
        </mxCell>
        <mxCell id="mST9L1KYjSmr3MNv_KCc-173" value="" style="endArrow=diamondThin;endFill=1;endSize=24;html=1;rounded=0;entryX=0.5;entryY=0;entryDx=0;entryDy=0;exitX=0.5;exitY=1;exitDx=0;exitDy=0;" parent="1" source="mST9L1KYjSmr3MNv_KCc-150" target="mST9L1KYjSmr3MNv_KCc-146" edge="1">
          <mxGeometry width="160" relative="1" as="geometry">
            <mxPoint x="2420" y="2205" as="sourcePoint" />
            <mxPoint x="2390" y="2245" as="targetPoint" />
          </mxGeometry>
        </mxCell>
        <mxCell id="mST9L1KYjSmr3MNv_KCc-174" value="" style="endArrow=block;endSize=16;endFill=0;html=1;rounded=0;exitX=0.5;exitY=0;exitDx=0;exitDy=0;entryX=-0.003;entryY=0.475;entryDx=0;entryDy=0;entryPerimeter=0;" parent="1" source="mST9L1KYjSmr3MNv_KCc-102" target="mST9L1KYjSmr3MNv_KCc-33" edge="1">
          <mxGeometry width="160" relative="1" as="geometry">
            <mxPoint x="1790" y="2620" as="sourcePoint" />
            <mxPoint x="2800" y="2710" as="targetPoint" />
            <Array as="points">
              <mxPoint x="1220" y="2700" />
            </Array>
          </mxGeometry>
        </mxCell>
        <mxCell id="mST9L1KYjSmr3MNv_KCc-176" value="" style="endArrow=none;html=1;rounded=0;" parent="1" target="mST9L1KYjSmr3MNv_KCc-113" edge="1">
          <mxGeometry width="50" height="50" relative="1" as="geometry">
            <mxPoint x="1220" y="2700" as="sourcePoint" />
            <mxPoint x="1320" y="2690" as="targetPoint" />
          </mxGeometry>
        </mxCell>
        <mxCell id="mST9L1KYjSmr3MNv_KCc-177" value="" style="endArrow=none;html=1;rounded=0;entryX=0.957;entryY=0.994;entryDx=0;entryDy=0;entryPerimeter=0;" parent="1" target="mST9L1KYjSmr3MNv_KCc-117" edge="1">
          <mxGeometry width="50" height="50" relative="1" as="geometry">
            <mxPoint x="1460" y="2700" as="sourcePoint" />
            <mxPoint x="1440" y="2690" as="targetPoint" />
          </mxGeometry>
        </mxCell>
        <mxCell id="mST9L1KYjSmr3MNv_KCc-178" value="" style="endArrow=none;html=1;rounded=0;exitX=1.001;exitY=0.563;exitDx=0;exitDy=0;exitPerimeter=0;" parent="1" source="mST9L1KYjSmr3MNv_KCc-121" edge="1">
          <mxGeometry width="50" height="50" relative="1" as="geometry">
            <mxPoint x="1550" y="2870" as="sourcePoint" />
            <mxPoint x="1520" y="2700" as="targetPoint" />
            <Array as="points">
              <mxPoint x="1520" y="3010" />
            </Array>
          </mxGeometry>
        </mxCell>
        <mxCell id="mST9L1KYjSmr3MNv_KCc-179" value="" style="endArrow=none;html=1;rounded=0;" parent="1" edge="1">
          <mxGeometry width="50" height="50" relative="1" as="geometry">
            <mxPoint x="2200" y="2819" as="sourcePoint" />
            <mxPoint x="2200" y="2710" as="targetPoint" />
          </mxGeometry>
        </mxCell>
        <mxCell id="mST9L1KYjSmr3MNv_KCc-180" value="" style="endArrow=none;html=1;rounded=0;exitX=0.07;exitY=0.016;exitDx=0;exitDy=0;exitPerimeter=0;" parent="1" edge="1">
          <mxGeometry width="50" height="50" relative="1" as="geometry">
            <mxPoint x="2040.3000000000002" y="2960.4399999999996" as="sourcePoint" />
            <mxPoint x="2040" y="2709" as="targetPoint" />
          </mxGeometry>
        </mxCell>
        <mxCell id="mST9L1KYjSmr3MNv_KCc-182" value="" style="endArrow=none;html=1;rounded=0;entryX=0.51;entryY=1.022;entryDx=0;entryDy=0;entryPerimeter=0;" parent="1" target="mST9L1KYjSmr3MNv_KCc-133" edge="1">
          <mxGeometry width="50" height="50" relative="1" as="geometry">
            <mxPoint x="780" y="2700" as="sourcePoint" />
            <mxPoint x="700" y="2620" as="targetPoint" />
            <Array as="points">
              <mxPoint x="740" y="2700" />
            </Array>
          </mxGeometry>
        </mxCell>
        <mxCell id="mST9L1KYjSmr3MNv_KCc-184" value="" style="endArrow=none;html=1;rounded=0;exitX=0.002;exitY=0.446;exitDx=0;exitDy=0;exitPerimeter=0;entryX=0;entryY=0.5;entryDx=0;entryDy=0;" parent="1" source="mST9L1KYjSmr3MNv_KCc-59" target="mST9L1KYjSmr3MNv_KCc-130" edge="1">
          <mxGeometry width="50" height="50" relative="1" as="geometry">
            <mxPoint x="510" y="2970" as="sourcePoint" />
            <mxPoint x="480" y="2520" as="targetPoint" />
            <Array as="points">
              <mxPoint x="420" y="3260" />
              <mxPoint x="420" y="2520" />
            </Array>
          </mxGeometry>
        </mxCell>
        <mxCell id="mST9L1KYjSmr3MNv_KCc-185" value="Contact" style="edgeLabel;html=1;align=center;verticalAlign=middle;resizable=0;points=[];" parent="mST9L1KYjSmr3MNv_KCc-184" vertex="1" connectable="0">
          <mxGeometry x="-0.7696" y="-1" relative="1" as="geometry">
            <mxPoint as="offset" />
          </mxGeometry>
        </mxCell>
        <mxCell id="mST9L1KYjSmr3MNv_KCc-187" value="m" style="edgeLabel;html=1;align=center;verticalAlign=middle;resizable=0;points=[];" parent="mST9L1KYjSmr3MNv_KCc-184" vertex="1" connectable="0">
          <mxGeometry x="-0.9754" y="-2" relative="1" as="geometry">
            <mxPoint y="-8" as="offset" />
          </mxGeometry>
        </mxCell>
        <mxCell id="mST9L1KYjSmr3MNv_KCc-197" value="1" style="edgeLabel;html=1;align=center;verticalAlign=middle;resizable=0;points=[];" parent="mST9L1KYjSmr3MNv_KCc-184" vertex="1" connectable="0">
          <mxGeometry x="0.9816" y="2" relative="1" as="geometry">
            <mxPoint y="-10" as="offset" />
          </mxGeometry>
        </mxCell>
        <mxCell id="mST9L1KYjSmr3MNv_KCc-205" value="Contact" style="edgeLabel;html=1;align=center;verticalAlign=middle;resizable=0;points=[];" parent="mST9L1KYjSmr3MNv_KCc-184" vertex="1" connectable="0">
          <mxGeometry x="0.5365" y="-3" relative="1" as="geometry">
            <mxPoint as="offset" />
          </mxGeometry>
        </mxCell>
        <mxCell id="mST9L1KYjSmr3MNv_KCc-188" value="" style="endArrow=none;html=1;rounded=0;entryX=0.075;entryY=1.028;entryDx=0;entryDy=0;entryPerimeter=0;exitX=0.762;exitY=-0.013;exitDx=0;exitDy=0;exitPerimeter=0;" parent="1" source="mST9L1KYjSmr3MNv_KCc-58" target="mST9L1KYjSmr3MNv_KCc-105" edge="1">
          <mxGeometry width="50" height="50" relative="1" as="geometry">
            <mxPoint x="1080" y="3050" as="sourcePoint" />
            <mxPoint x="1130" y="3000" as="targetPoint" />
          </mxGeometry>
        </mxCell>
        <mxCell id="mST9L1KYjSmr3MNv_KCc-195" value="m" style="edgeLabel;html=1;align=center;verticalAlign=middle;resizable=0;points=[];" parent="mST9L1KYjSmr3MNv_KCc-188" vertex="1" connectable="0">
          <mxGeometry x="-0.8466" y="-1" relative="1" as="geometry">
            <mxPoint x="9" y="4" as="offset" />
          </mxGeometry>
        </mxCell>
        <mxCell id="mST9L1KYjSmr3MNv_KCc-199" value="1" style="edgeLabel;html=1;align=center;verticalAlign=middle;resizable=0;points=[];" parent="mST9L1KYjSmr3MNv_KCc-188" vertex="1" connectable="0">
          <mxGeometry x="0.9374" relative="1" as="geometry">
            <mxPoint x="-9" as="offset" />
          </mxGeometry>
        </mxCell>
        <mxCell id="mST9L1KYjSmr3MNv_KCc-207" value="Contact" style="edgeLabel;html=1;align=center;verticalAlign=middle;resizable=0;points=[];" parent="mST9L1KYjSmr3MNv_KCc-188" vertex="1" connectable="0">
          <mxGeometry x="-0.1949" y="2" relative="1" as="geometry">
            <mxPoint as="offset" />
          </mxGeometry>
        </mxCell>
        <mxCell id="mST9L1KYjSmr3MNv_KCc-190" value="" style="endArrow=none;html=1;rounded=0;" parent="1" edge="1">
          <mxGeometry width="50" height="50" relative="1" as="geometry">
            <mxPoint x="770" y="2700" as="sourcePoint" />
            <mxPoint x="1230" y="2700" as="targetPoint" />
          </mxGeometry>
        </mxCell>
        <mxCell id="mST9L1KYjSmr3MNv_KCc-193" value="" style="endArrow=none;html=1;rounded=0;exitX=0.25;exitY=0;exitDx=0;exitDy=0;" parent="1" source="mST9L1KYjSmr3MNv_KCc-58" edge="1">
          <mxGeometry width="50" height="50" relative="1" as="geometry">
            <mxPoint x="960" y="3110" as="sourcePoint" />
            <mxPoint x="805" y="3030" as="targetPoint" />
          </mxGeometry>
        </mxCell>
        <mxCell id="mST9L1KYjSmr3MNv_KCc-196" value="m" style="edgeLabel;html=1;align=center;verticalAlign=middle;resizable=0;points=[];" parent="mST9L1KYjSmr3MNv_KCc-193" vertex="1" connectable="0">
          <mxGeometry x="-0.7645" y="-2" relative="1" as="geometry">
            <mxPoint x="-17" y="-1" as="offset" />
          </mxGeometry>
        </mxCell>
        <mxCell id="mST9L1KYjSmr3MNv_KCc-198" value="1" style="edgeLabel;html=1;align=center;verticalAlign=middle;resizable=0;points=[];" parent="mST9L1KYjSmr3MNv_KCc-193" vertex="1" connectable="0">
          <mxGeometry x="0.8637" y="1" relative="1" as="geometry">
            <mxPoint x="6" as="offset" />
          </mxGeometry>
        </mxCell>
        <mxCell id="mST9L1KYjSmr3MNv_KCc-206" value="Contact" style="edgeLabel;html=1;align=center;verticalAlign=middle;resizable=0;points=[];" parent="mST9L1KYjSmr3MNv_KCc-193" vertex="1" connectable="0">
          <mxGeometry x="0.1669" relative="1" as="geometry">
            <mxPoint as="offset" />
          </mxGeometry>
        </mxCell>
        <mxCell id="mST9L1KYjSmr3MNv_KCc-201" value="" style="endArrow=none;html=1;rounded=0;exitX=0.5;exitY=0;exitDx=0;exitDy=0;entryX=0.573;entryY=1.003;entryDx=0;entryDy=0;entryPerimeter=0;" parent="1" source="mST9L1KYjSmr3MNv_KCc-54" target="mST9L1KYjSmr3MNv_KCc-141" edge="1">
          <mxGeometry width="50" height="50" relative="1" as="geometry">
            <mxPoint x="1910" y="3180" as="sourcePoint" />
            <mxPoint x="1810" y="3100" as="targetPoint" />
          </mxGeometry>
        </mxCell>
        <mxCell id="mST9L1KYjSmr3MNv_KCc-202" value="1" style="edgeLabel;html=1;align=center;verticalAlign=middle;resizable=0;points=[];" parent="mST9L1KYjSmr3MNv_KCc-201" vertex="1" connectable="0">
          <mxGeometry x="0.9698" relative="1" as="geometry">
            <mxPoint x="10" as="offset" />
          </mxGeometry>
        </mxCell>
        <mxCell id="mST9L1KYjSmr3MNv_KCc-203" value="1" style="edgeLabel;html=1;align=center;verticalAlign=middle;resizable=0;points=[];" parent="mST9L1KYjSmr3MNv_KCc-201" vertex="1" connectable="0">
          <mxGeometry x="-0.9337" y="-1" relative="1" as="geometry">
            <mxPoint x="-11" as="offset" />
          </mxGeometry>
        </mxCell>
        <mxCell id="mST9L1KYjSmr3MNv_KCc-204" value="Contact" style="edgeLabel;html=1;align=center;verticalAlign=middle;resizable=0;points=[];" parent="mST9L1KYjSmr3MNv_KCc-201" vertex="1" connectable="0">
          <mxGeometry x="0.0294" relative="1" as="geometry">
            <mxPoint as="offset" />
          </mxGeometry>
        </mxCell>
        <mxCell id="mST9L1KYjSmr3MNv_KCc-210" value="" style="endArrow=none;html=1;rounded=0;exitX=0.567;exitY=0;exitDx=0;exitDy=0;exitPerimeter=0;" parent="1" source="mST9L1KYjSmr3MNv_KCc-126" edge="1">
          <mxGeometry width="50" height="50" relative="1" as="geometry">
            <mxPoint x="880" y="2680" as="sourcePoint" />
            <mxPoint x="740" y="2700" as="targetPoint" />
          </mxGeometry>
        </mxCell>
        <mxCell id="mST9L1KYjSmr3MNv_KCc-211" value="" style="endArrow=none;html=1;rounded=0;exitX=0.511;exitY=-0.003;exitDx=0;exitDy=0;entryX=0.5;entryY=1;entryDx=0;entryDy=0;entryPerimeter=0;exitPerimeter=0;" parent="1" source="mST9L1KYjSmr3MNv_KCc-138" target="mST9L1KYjSmr3MNv_KCc-137" edge="1">
          <mxGeometry width="50" height="50" relative="1" as="geometry">
            <mxPoint x="1850" y="2690" as="sourcePoint" />
            <mxPoint x="1900" y="2640" as="targetPoint" />
          </mxGeometry>
        </mxCell>
        <mxCell id="mST9L1KYjSmr3MNv_KCc-212" value="" style="endArrow=none;html=1;rounded=0;exitX=0;exitY=0.714;exitDx=0;exitDy=0;exitPerimeter=0;entryX=1.001;entryY=0.059;entryDx=0;entryDy=0;entryPerimeter=0;" parent="1" source="mST9L1KYjSmr3MNv_KCc-19" target="mST9L1KYjSmr3MNv_KCc-4" edge="1">
          <mxGeometry width="50" height="50" relative="1" as="geometry">
            <mxPoint x="4170" y="2670" as="sourcePoint" />
            <mxPoint x="3920" y="2520" as="targetPoint" />
          </mxGeometry>
        </mxCell>
        <mxCell id="mST9L1KYjSmr3MNv_KCc-213" value="1" style="edgeLabel;html=1;align=center;verticalAlign=middle;resizable=0;points=[];" parent="mST9L1KYjSmr3MNv_KCc-212" vertex="1" connectable="0">
          <mxGeometry x="0.9758" y="-1" relative="1" as="geometry">
            <mxPoint y="-8" as="offset" />
          </mxGeometry>
        </mxCell>
        <mxCell id="mST9L1KYjSmr3MNv_KCc-214" value="m" style="edgeLabel;html=1;align=center;verticalAlign=middle;resizable=0;points=[];" parent="mST9L1KYjSmr3MNv_KCc-212" vertex="1" connectable="0">
          <mxGeometry x="-0.9812" y="1" relative="1" as="geometry">
            <mxPoint x="-5" y="9" as="offset" />
          </mxGeometry>
        </mxCell>
        <mxCell id="mST9L1KYjSmr3MNv_KCc-218" value="Writes" style="edgeLabel;html=1;align=center;verticalAlign=middle;resizable=0;points=[];" parent="mST9L1KYjSmr3MNv_KCc-212" vertex="1" connectable="0">
          <mxGeometry x="-0.0736" y="2" relative="1" as="geometry">
            <mxPoint y="-12" as="offset" />
          </mxGeometry>
        </mxCell>
        <mxCell id="mST9L1KYjSmr3MNv_KCc-215" value="" style="endArrow=none;html=1;rounded=0;entryX=1.001;entryY=0.059;entryDx=0;entryDy=0;entryPerimeter=0;" parent="1" edge="1">
          <mxGeometry width="50" height="50" relative="1" as="geometry">
            <mxPoint x="4120" y="2710" as="sourcePoint" />
            <mxPoint x="3900" y="2710" as="targetPoint" />
          </mxGeometry>
        </mxCell>
        <mxCell id="mST9L1KYjSmr3MNv_KCc-216" value="1" style="edgeLabel;html=1;align=center;verticalAlign=middle;resizable=0;points=[];" parent="mST9L1KYjSmr3MNv_KCc-215" vertex="1" connectable="0">
          <mxGeometry x="0.9758" y="-1" relative="1" as="geometry">
            <mxPoint x="7" y="-8" as="offset" />
          </mxGeometry>
        </mxCell>
        <mxCell id="mST9L1KYjSmr3MNv_KCc-217" value="m" style="edgeLabel;html=1;align=center;verticalAlign=middle;resizable=0;points=[];" parent="mST9L1KYjSmr3MNv_KCc-215" vertex="1" connectable="0">
          <mxGeometry x="-0.9812" y="1" relative="1" as="geometry">
            <mxPoint x="-5" y="9" as="offset" />
          </mxGeometry>
        </mxCell>
        <mxCell id="mST9L1KYjSmr3MNv_KCc-219" value="Makes" style="edgeLabel;html=1;align=center;verticalAlign=middle;resizable=0;points=[];" parent="mST9L1KYjSmr3MNv_KCc-215" vertex="1" connectable="0">
          <mxGeometry x="0.1094" y="-2" relative="1" as="geometry">
            <mxPoint y="-8" as="offset" />
          </mxGeometry>
        </mxCell>
        <mxCell id="uWWJxjok1P_zTxZDuZxo-2" value="" style="endArrow=none;html=1;rounded=0;entryX=0.51;entryY=1.001;entryDx=0;entryDy=0;entryPerimeter=0;" parent="1" target="mST9L1KYjSmr3MNv_KCc-109" edge="1">
          <mxGeometry width="50" height="50" relative="1" as="geometry">
            <mxPoint x="2400" y="2710" as="sourcePoint" />
            <mxPoint x="2410" y="2600" as="targetPoint" />
          </mxGeometry>
        </mxCell>
        <mxCell id="uWWJxjok1P_zTxZDuZxo-3" value="" style="endArrow=none;html=1;rounded=0;exitX=-0.004;exitY=0.037;exitDx=0;exitDy=0;exitPerimeter=0;" parent="1" source="mST9L1KYjSmr3MNv_KCc-154" edge="1">
          <mxGeometry width="50" height="50" relative="1" as="geometry">
            <mxPoint x="410" y="2890" as="sourcePoint" />
            <mxPoint x="2201" y="2490" as="targetPoint" />
            <Array as="points">
              <mxPoint x="330" y="3300" />
              <mxPoint x="330" y="2130" />
              <mxPoint x="2200" y="2130" />
            </Array>
          </mxGeometry>
        </mxCell>
        <mxCell id="uWWJxjok1P_zTxZDuZxo-4" value="m" style="edgeLabel;html=1;align=center;verticalAlign=middle;resizable=0;points=[];" parent="uWWJxjok1P_zTxZDuZxo-3" vertex="1" connectable="0">
          <mxGeometry x="-0.9958" y="-2" relative="1" as="geometry">
            <mxPoint y="-10" as="offset" />
          </mxGeometry>
        </mxCell>
        <mxCell id="uWWJxjok1P_zTxZDuZxo-5" value="Contact" style="edgeLabel;html=1;align=center;verticalAlign=middle;resizable=0;points=[];" parent="uWWJxjok1P_zTxZDuZxo-3" vertex="1" connectable="0">
          <mxGeometry x="-0.9256" y="-2" relative="1" as="geometry">
            <mxPoint as="offset" />
          </mxGeometry>
        </mxCell>
        <mxCell id="uWWJxjok1P_zTxZDuZxo-6" value="1" style="edgeLabel;html=1;align=center;verticalAlign=middle;resizable=0;points=[];" parent="uWWJxjok1P_zTxZDuZxo-3" vertex="1" connectable="0">
          <mxGeometry x="0.9964" relative="1" as="geometry">
            <mxPoint x="9" y="-3" as="offset" />
          </mxGeometry>
        </mxCell>
        <mxCell id="Jg8wJ6fH6UuVb_NASHEp-1" value="" style="endArrow=diamondThin;endFill=0;endSize=24;html=1;rounded=0;exitX=1.001;exitY=0.411;exitDx=0;exitDy=0;exitPerimeter=0;" edge="1" parent="1" source="mST9L1KYjSmr3MNv_KCc-93">
          <mxGeometry width="160" relative="1" as="geometry">
            <mxPoint x="3300" y="2420" as="sourcePoint" />
            <mxPoint x="3340" y="2360" as="targetPoint" />
          </mxGeometry>
        </mxCell>
        <mxCell id="Jg8wJ6fH6UuVb_NASHEp-2" value="" style="endArrow=diamondThin;endFill=0;endSize=24;html=1;rounded=0;exitX=1;exitY=0.961;exitDx=0;exitDy=0;exitPerimeter=0;" edge="1" parent="1" source="mST9L1KYjSmr3MNv_KCc-149">
          <mxGeometry width="160" relative="1" as="geometry">
            <mxPoint x="2560" y="2440" as="sourcePoint" />
            <mxPoint x="3340" y="2440" as="targetPoint" />
          </mxGeometry>
        </mxCell>
        <mxCell id="Jg8wJ6fH6UuVb_NASHEp-3" value="DataBase Proxy" style="swimlane;fontStyle=1;align=center;verticalAlign=top;childLayout=stackLayout;horizontal=1;startSize=26;horizontalStack=0;resizeParent=1;resizeParentMax=0;resizeLast=0;collapsible=1;marginBottom=0;whiteSpace=wrap;html=1;" vertex="1" parent="1">
          <mxGeometry x="2860" y="2884" width="310" height="140" as="geometry" />
        </mxCell>
        <mxCell id="Jg8wJ6fH6UuVb_NASHEp-5" value="" style="line;strokeWidth=1;fillColor=none;align=left;verticalAlign=middle;spacingTop=-1;spacingLeft=3;spacingRight=3;rotatable=0;labelPosition=right;points=[];portConstraint=eastwest;strokeColor=inherit;" vertex="1" parent="Jg8wJ6fH6UuVb_NASHEp-3">
          <mxGeometry y="26" width="310" height="8" as="geometry" />
        </mxCell>
        <mxCell id="Jg8wJ6fH6UuVb_NASHEp-6" value="getRequests() : Request[]&lt;br&gt;getInsurance() : Insurance[]&lt;br&gt;getEmployee() : Employee[]&lt;br&gt;getTeams() : Team[]&amp;nbsp;&lt;br&gt;getProduction : Report[]&lt;br&gt;getExternalCompanys() : ExternalCompany[]" style="text;strokeColor=none;fillColor=none;align=left;verticalAlign=top;spacingLeft=4;spacingRight=4;overflow=hidden;rotatable=0;points=[[0,0.5],[1,0.5]];portConstraint=eastwest;whiteSpace=wrap;html=1;" vertex="1" parent="Jg8wJ6fH6UuVb_NASHEp-3">
          <mxGeometry y="34" width="310" height="106" as="geometry" />
        </mxCell>
        <mxCell id="Jg8wJ6fH6UuVb_NASHEp-8" value="" style="endArrow=none;html=1;rounded=0;entryX=-0.003;entryY=0.855;entryDx=0;entryDy=0;entryPerimeter=0;exitX=1;exitY=0.401;exitDx=0;exitDy=0;exitPerimeter=0;" edge="1" parent="1" source="Jg8wJ6fH6UuVb_NASHEp-6" target="mST9L1KYjSmr3MNv_KCc-4">
          <mxGeometry width="50" height="50" relative="1" as="geometry">
            <mxPoint x="3230" y="2960" as="sourcePoint" />
            <mxPoint x="3280" y="2910" as="targetPoint" />
          </mxGeometry>
        </mxCell>
        <mxCell id="Jg8wJ6fH6UuVb_NASHEp-11" value="Retrieves and deposits" style="edgeLabel;html=1;align=center;verticalAlign=middle;resizable=0;points=[];" vertex="1" connectable="0" parent="Jg8wJ6fH6UuVb_NASHEp-8">
          <mxGeometry x="-0.1701" y="1" relative="1" as="geometry">
            <mxPoint x="10" y="1" as="offset" />
          </mxGeometry>
        </mxCell>
        <mxCell id="Jg8wJ6fH6UuVb_NASHEp-9" value="" style="endArrow=diamondThin;endFill=0;endSize=24;html=1;rounded=0;exitX=1.001;exitY=0.411;exitDx=0;exitDy=0;exitPerimeter=0;" edge="1" parent="1">
          <mxGeometry width="160" relative="1" as="geometry">
            <mxPoint x="3340" y="2660" as="sourcePoint" />
            <mxPoint x="3270" y="2660" as="targetPoint" />
          </mxGeometry>
        </mxCell>
        <mxCell id="Jg8wJ6fH6UuVb_NASHEp-10" value="" style="endArrow=none;html=1;rounded=0;exitX=0.452;exitY=0.002;exitDx=0;exitDy=0;exitPerimeter=0;entryX=0.426;entryY=1.002;entryDx=0;entryDy=0;entryPerimeter=0;" edge="1" parent="1" source="Jg8wJ6fH6UuVb_NASHEp-3" target="mST9L1KYjSmr3MNv_KCc-33">
          <mxGeometry width="50" height="50" relative="1" as="geometry">
            <mxPoint x="3050" y="2910" as="sourcePoint" />
            <mxPoint x="3040" y="2850" as="targetPoint" />
          </mxGeometry>
        </mxCell>
        <mxCell id="Jg8wJ6fH6UuVb_NASHEp-12" value="Retrieves and deposits" style="edgeLabel;html=1;align=center;verticalAlign=middle;resizable=0;points=[];" vertex="1" connectable="0" parent="Jg8wJ6fH6UuVb_NASHEp-10">
          <mxGeometry x="0.2609" y="-1" relative="1" as="geometry">
            <mxPoint as="offset" />
          </mxGeometry>
        </mxCell>
      </root>
    </mxGraphModel>
  </diagram>
</mxfile>
